<mxfile host="Electron" agent="Mozilla/5.0 (Windows NT 10.0; Win64; x64) AppleWebKit/537.36 (KHTML, like Gecko) draw.io/25.0.2 Chrome/128.0.6613.186 Electron/32.2.5 Safari/537.36" version="25.0.2">
  <diagram name="Page-1" id="edf60f1a-56cd-e834-aa8a-f176f3a09ee4">
    <mxGraphModel dx="3191" dy="2690" grid="1" gridSize="10" guides="1" tooltips="1" connect="1" arrows="1" fold="1" page="1" pageScale="1" pageWidth="1100" pageHeight="850" background="none" math="0" shadow="0">
      <root>
        <mxCell id="0" />
        <mxCell id="1" parent="0" />
        <mxCell id="60e70716793133e9-2" value="" style="shape=trapezoid;whiteSpace=wrap;html=1;rounded=0;shadow=1;labelBackgroundColor=none;strokeWidth=1;fontFamily=Verdana;fontSize=8;align=center;flipV=1;rotation=0;" parent="1" vertex="1">
          <mxGeometry x="640" y="120" width="200" height="60" as="geometry" />
        </mxCell>
        <mxCell id="60e70716793133e9-4" value="" style="rounded=0;whiteSpace=wrap;html=1;shadow=1;labelBackgroundColor=none;strokeWidth=1;fontFamily=Verdana;fontSize=8;align=center;" parent="1" vertex="1">
          <mxGeometry x="772.5" y="10" width="140" height="80" as="geometry" />
        </mxCell>
        <mxCell id="9Tk4j7E-xUBaxFbbJqGf-1" value="Button Control&lt;div&gt;Module&lt;/div&gt;" style="text;strokeColor=none;align=center;fillColor=none;html=1;verticalAlign=middle;whiteSpace=wrap;rounded=0;" parent="1" vertex="1">
          <mxGeometry x="782.5" y="30" width="120" height="30" as="geometry" />
        </mxCell>
        <mxCell id="9Tk4j7E-xUBaxFbbJqGf-2" value="" style="endArrow=classic;html=1;rounded=0;entryX=0.001;entryY=0.518;entryDx=0;entryDy=0;entryPerimeter=0;" parent="1" target="9Tk4j7E-xUBaxFbbJqGf-36" edge="1">
          <mxGeometry width="50" height="50" relative="1" as="geometry">
            <mxPoint x="1370" y="620" as="sourcePoint" />
            <mxPoint x="1470" y="620" as="targetPoint" />
          </mxGeometry>
        </mxCell>
        <mxCell id="9Tk4j7E-xUBaxFbbJqGf-3" value="Segment Data" style="edgeLabel;html=1;align=center;verticalAlign=middle;resizable=0;points=[];" parent="9Tk4j7E-xUBaxFbbJqGf-2" vertex="1" connectable="0">
          <mxGeometry x="-0.16" relative="1" as="geometry">
            <mxPoint x="8" y="-20" as="offset" />
          </mxGeometry>
        </mxCell>
        <mxCell id="9Tk4j7E-xUBaxFbbJqGf-15" value="14" style="edgeLabel;html=1;align=center;verticalAlign=middle;resizable=0;points=[];" parent="9Tk4j7E-xUBaxFbbJqGf-2" vertex="1" connectable="0">
          <mxGeometry x="-0.16" relative="1" as="geometry">
            <mxPoint x="8" y="20" as="offset" />
          </mxGeometry>
        </mxCell>
        <mxCell id="9Tk4j7E-xUBaxFbbJqGf-16" value="2x1&lt;div&gt;MUX&lt;/div&gt;" style="edgeLabel;html=1;align=center;verticalAlign=middle;resizable=0;points=[];" parent="9Tk4j7E-xUBaxFbbJqGf-2" vertex="1" connectable="0">
          <mxGeometry x="-0.16" relative="1" as="geometry">
            <mxPoint x="-437" y="-469" as="offset" />
          </mxGeometry>
        </mxCell>
        <mxCell id="9Tk4j7E-xUBaxFbbJqGf-14" value="" style="endArrow=none;html=1;rounded=0;" parent="1" edge="1">
          <mxGeometry width="50" height="50" relative="1" as="geometry">
            <mxPoint x="832.5" y="510" as="sourcePoint" />
            <mxPoint x="852.5" y="490" as="targetPoint" />
          </mxGeometry>
        </mxCell>
        <mxCell id="9Tk4j7E-xUBaxFbbJqGf-17" value="system clk" style="rounded=1;whiteSpace=wrap;html=1;" parent="1" vertex="1">
          <mxGeometry x="50" y="60" width="120" height="60" as="geometry" />
        </mxCell>
        <mxCell id="9Tk4j7E-xUBaxFbbJqGf-18" value="system reset" style="rounded=1;whiteSpace=wrap;html=1;" parent="1" vertex="1">
          <mxGeometry x="50" y="130" width="120" height="60" as="geometry" />
        </mxCell>
        <mxCell id="9Tk4j7E-xUBaxFbbJqGf-23" value="" style="endArrow=none;html=1;rounded=0;exitX=1;exitY=0.5;exitDx=0;exitDy=0;endFill=0;" parent="1" source="9Tk4j7E-xUBaxFbbJqGf-17" edge="1">
          <mxGeometry width="50" height="50" relative="1" as="geometry">
            <mxPoint x="180" y="100" as="sourcePoint" />
            <mxPoint x="230" y="90" as="targetPoint" />
          </mxGeometry>
        </mxCell>
        <mxCell id="9Tk4j7E-xUBaxFbbJqGf-24" value="" style="endArrow=none;html=1;rounded=0;endFill=0;" parent="1" edge="1">
          <mxGeometry width="50" height="50" relative="1" as="geometry">
            <mxPoint x="230" y="90" as="sourcePoint" />
            <mxPoint x="230" y="940" as="targetPoint" />
          </mxGeometry>
        </mxCell>
        <mxCell id="9Tk4j7E-xUBaxFbbJqGf-26" value="" style="endArrow=classic;html=1;rounded=0;endFill=1;entryX=0;entryY=0.5;entryDx=0;entryDy=0;" parent="1" edge="1">
          <mxGeometry width="50" height="50" relative="1" as="geometry">
            <mxPoint x="230" y="670" as="sourcePoint" />
            <mxPoint x="260" y="670" as="targetPoint" />
          </mxGeometry>
        </mxCell>
        <mxCell id="9Tk4j7E-xUBaxFbbJqGf-30" value="" style="endArrow=classic;html=1;rounded=0;endFill=1;entryX=0;entryY=0.5;entryDx=0;entryDy=0;" parent="1" edge="1">
          <mxGeometry width="50" height="50" relative="1" as="geometry">
            <mxPoint x="200" y="425" as="sourcePoint" />
            <mxPoint x="260" y="425" as="targetPoint" />
          </mxGeometry>
        </mxCell>
        <mxCell id="9Tk4j7E-xUBaxFbbJqGf-31" value="" style="endArrow=classic;html=1;rounded=0;endFill=1;entryX=0;entryY=0.5;entryDx=0;entryDy=0;" parent="1" edge="1">
          <mxGeometry width="50" height="50" relative="1" as="geometry">
            <mxPoint x="200" y="740" as="sourcePoint" />
            <mxPoint x="260" y="740" as="targetPoint" />
          </mxGeometry>
        </mxCell>
        <mxCell id="9Tk4j7E-xUBaxFbbJqGf-33" value="" style="endArrow=none;html=1;rounded=0;endFill=0;" parent="1" edge="1">
          <mxGeometry width="50" height="50" relative="1" as="geometry">
            <mxPoint x="200" y="160" as="sourcePoint" />
            <mxPoint x="200" y="970" as="targetPoint" />
          </mxGeometry>
        </mxCell>
        <mxCell id="9Tk4j7E-xUBaxFbbJqGf-34" value="" style="endArrow=none;html=1;rounded=0;exitX=1;exitY=0.5;exitDx=0;exitDy=0;endFill=0;" parent="1" edge="1">
          <mxGeometry width="50" height="50" relative="1" as="geometry">
            <mxPoint x="170" y="160" as="sourcePoint" />
            <mxPoint x="200" y="160" as="targetPoint" />
          </mxGeometry>
        </mxCell>
        <mxCell id="9Tk4j7E-xUBaxFbbJqGf-35" value="Clock / Stop Watch" style="text;strokeColor=none;align=center;fillColor=none;html=1;verticalAlign=middle;whiteSpace=wrap;rounded=0;" parent="1" vertex="1">
          <mxGeometry x="1050" y="320" width="120" height="30" as="geometry" />
        </mxCell>
        <mxCell id="9Tk4j7E-xUBaxFbbJqGf-36" value="" style="rounded=0;whiteSpace=wrap;html=1;shadow=1;labelBackgroundColor=none;strokeWidth=1;fontFamily=Verdana;fontSize=8;align=center;" parent="1" vertex="1">
          <mxGeometry x="910" y="320" width="660" height="580" as="geometry" />
        </mxCell>
        <mxCell id="9Tk4j7E-xUBaxFbbJqGf-37" value="FND CONTROLLER" style="text;strokeColor=none;align=center;fillColor=none;html=1;verticalAlign=middle;whiteSpace=wrap;rounded=0;" parent="1" vertex="1">
          <mxGeometry x="1060" y="330" width="120" height="30" as="geometry" />
        </mxCell>
        <mxCell id="9Tk4j7E-xUBaxFbbJqGf-39" value="" style="rounded=0;whiteSpace=wrap;html=1;shadow=1;labelBackgroundColor=none;strokeWidth=1;fontFamily=Verdana;fontSize=8;align=center;" parent="1" vertex="1">
          <mxGeometry x="230" y="-350" width="480" height="300" as="geometry" />
        </mxCell>
        <mxCell id="9Tk4j7E-xUBaxFbbJqGf-40" value="Tick clock" style="text;strokeColor=none;align=center;fillColor=none;html=1;verticalAlign=middle;whiteSpace=wrap;rounded=0;" parent="1" vertex="1">
          <mxGeometry x="220" y="-343" width="120" height="30" as="geometry" />
        </mxCell>
        <mxCell id="9Tk4j7E-xUBaxFbbJqGf-44" value="" style="endArrow=none;html=1;rounded=0;exitX=1;exitY=0.5;exitDx=0;exitDy=0;endFill=0;" parent="1" edge="1">
          <mxGeometry width="50" height="50" relative="1" as="geometry">
            <mxPoint x="109.58" y="60" as="sourcePoint" />
            <mxPoint x="110" y="-230" as="targetPoint" />
          </mxGeometry>
        </mxCell>
        <mxCell id="9Tk4j7E-xUBaxFbbJqGf-46" value="" style="endArrow=classic;html=1;rounded=0;endFill=1;entryX=-0.004;entryY=0.399;entryDx=0;entryDy=0;entryPerimeter=0;" parent="1" target="9Tk4j7E-xUBaxFbbJqGf-39" edge="1">
          <mxGeometry width="50" height="50" relative="1" as="geometry">
            <mxPoint x="110" y="-230" as="sourcePoint" />
            <mxPoint x="170" y="-180" as="targetPoint" />
          </mxGeometry>
        </mxCell>
        <mxCell id="9Tk4j7E-xUBaxFbbJqGf-47" value="" style="rounded=0;whiteSpace=wrap;html=1;shadow=1;labelBackgroundColor=none;strokeWidth=1;fontFamily=Verdana;fontSize=8;align=center;" parent="1" vertex="1">
          <mxGeometry x="244" y="-290" width="92" height="170" as="geometry" />
        </mxCell>
        <mxCell id="9Tk4j7E-xUBaxFbbJqGf-48" value="" style="rounded=0;whiteSpace=wrap;html=1;shadow=1;labelBackgroundColor=none;strokeWidth=1;fontFamily=Verdana;fontSize=8;align=center;" parent="1" vertex="1">
          <mxGeometry x="360" y="-290" width="92" height="170" as="geometry" />
        </mxCell>
        <mxCell id="9Tk4j7E-xUBaxFbbJqGf-49" value="" style="rounded=0;whiteSpace=wrap;html=1;shadow=1;labelBackgroundColor=none;strokeWidth=1;fontFamily=Verdana;fontSize=8;align=center;" parent="1" vertex="1">
          <mxGeometry x="480" y="-290" width="92" height="170" as="geometry" />
        </mxCell>
        <mxCell id="9Tk4j7E-xUBaxFbbJqGf-50" value="" style="rounded=0;whiteSpace=wrap;html=1;shadow=1;labelBackgroundColor=none;strokeWidth=1;fontFamily=Verdana;fontSize=8;align=center;" parent="1" vertex="1">
          <mxGeometry x="600" y="-290" width="92" height="170" as="geometry" />
        </mxCell>
        <mxCell id="9Tk4j7E-xUBaxFbbJqGf-51" value="us tick" style="text;strokeColor=none;align=center;fillColor=none;html=1;verticalAlign=middle;whiteSpace=wrap;rounded=0;" parent="1" vertex="1">
          <mxGeometry x="220" y="-290" width="120" height="30" as="geometry" />
        </mxCell>
        <mxCell id="9Tk4j7E-xUBaxFbbJqGf-52" value="ms tick" style="text;strokeColor=none;align=center;fillColor=none;html=1;verticalAlign=middle;whiteSpace=wrap;rounded=0;" parent="1" vertex="1">
          <mxGeometry x="330" y="-290" width="120" height="30" as="geometry" />
        </mxCell>
        <mxCell id="9Tk4j7E-xUBaxFbbJqGf-53" value="ms tick&lt;div&gt;counter&lt;/div&gt;" style="text;strokeColor=none;align=center;fillColor=none;html=1;verticalAlign=middle;whiteSpace=wrap;rounded=0;" parent="1" vertex="1">
          <mxGeometry x="580" y="-284" width="120" height="30" as="geometry" />
        </mxCell>
        <mxCell id="9Tk4j7E-xUBaxFbbJqGf-54" value="us tick&lt;div&gt;counter&lt;/div&gt;" style="text;strokeColor=none;align=center;fillColor=none;html=1;verticalAlign=middle;whiteSpace=wrap;rounded=0;" parent="1" vertex="1">
          <mxGeometry x="450" y="-284" width="120" height="30" as="geometry" />
        </mxCell>
        <mxCell id="9Tk4j7E-xUBaxFbbJqGf-60" value="" style="endArrow=none;html=1;rounded=0;endFill=0;" parent="1" edge="1">
          <mxGeometry width="50" height="50" relative="1" as="geometry">
            <mxPoint x="30" y="160" as="sourcePoint" />
            <mxPoint x="30" y="-260" as="targetPoint" />
          </mxGeometry>
        </mxCell>
        <mxCell id="9Tk4j7E-xUBaxFbbJqGf-62" value="" style="endArrow=none;html=1;rounded=0;exitX=1;exitY=0.5;exitDx=0;exitDy=0;endFill=0;" parent="1" edge="1">
          <mxGeometry width="50" height="50" relative="1" as="geometry">
            <mxPoint x="30" y="160" as="sourcePoint" />
            <mxPoint x="50" y="160" as="targetPoint" />
          </mxGeometry>
        </mxCell>
        <mxCell id="9Tk4j7E-xUBaxFbbJqGf-72" value="" style="endArrow=classic;html=1;rounded=0;entryX=0.835;entryY=1.047;entryDx=0;entryDy=0;exitX=0.25;exitY=1;exitDx=0;exitDy=0;entryPerimeter=0;" parent="1" edge="1" target="60e70716793133e9-2" source="60e70716793133e9-4">
          <mxGeometry width="50" height="50" relative="1" as="geometry">
            <mxPoint x="940" y="230" as="sourcePoint" />
            <mxPoint x="1040" y="230" as="targetPoint" />
          </mxGeometry>
        </mxCell>
        <mxCell id="9Tk4j7E-xUBaxFbbJqGf-77" value="" style="endArrow=classic;html=1;rounded=0;entryX=0.5;entryY=0;entryDx=0;entryDy=0;" parent="1" edge="1">
          <mxGeometry width="50" height="50" relative="1" as="geometry">
            <mxPoint x="800" y="500" as="sourcePoint" />
            <mxPoint x="900" y="500" as="targetPoint" />
          </mxGeometry>
        </mxCell>
        <mxCell id="9Tk4j7E-xUBaxFbbJqGf-88" value="" style="endArrow=classic;html=1;rounded=0;endFill=1;entryX=-0.004;entryY=0.399;entryDx=0;entryDy=0;entryPerimeter=0;" parent="1" edge="1">
          <mxGeometry width="50" height="50" relative="1" as="geometry">
            <mxPoint x="30" y="-259.7" as="sourcePoint" />
            <mxPoint x="228" y="-259.7" as="targetPoint" />
          </mxGeometry>
        </mxCell>
        <mxCell id="9Tk4j7E-xUBaxFbbJqGf-92" value="" style="endArrow=none;html=1;rounded=0;endFill=0;" parent="1" edge="1">
          <mxGeometry width="50" height="50" relative="1" as="geometry">
            <mxPoint x="230" y="940" as="sourcePoint" />
            <mxPoint x="230" y="940" as="targetPoint" />
          </mxGeometry>
        </mxCell>
        <mxCell id="9Tk4j7E-xUBaxFbbJqGf-93" value="" style="endArrow=classic;html=1;rounded=0;endFill=1;" parent="1" edge="1">
          <mxGeometry width="50" height="50" relative="1" as="geometry">
            <mxPoint x="1570" y="582.02" as="sourcePoint" />
            <mxPoint x="1760" y="580" as="targetPoint" />
          </mxGeometry>
        </mxCell>
        <mxCell id="9Tk4j7E-xUBaxFbbJqGf-94" value="" style="endArrow=classic;html=1;rounded=0;endFill=1;" parent="1" edge="1">
          <mxGeometry width="50" height="50" relative="1" as="geometry">
            <mxPoint x="1570" y="622.02" as="sourcePoint" />
            <mxPoint x="1760" y="620" as="targetPoint" />
          </mxGeometry>
        </mxCell>
        <mxCell id="9Tk4j7E-xUBaxFbbJqGf-95" value="" style="endArrow=classic;html=1;rounded=0;endFill=1;entryX=0.065;entryY=1.003;entryDx=0;entryDy=0;entryPerimeter=0;" parent="1" edge="1">
          <mxGeometry width="50" height="50" relative="1" as="geometry">
            <mxPoint x="1100" y="940" as="sourcePoint" />
            <mxPoint x="1099.8999999999999" y="901.7399999999998" as="targetPoint" />
          </mxGeometry>
        </mxCell>
        <mxCell id="9Tk4j7E-xUBaxFbbJqGf-96" value="" style="endArrow=none;html=1;rounded=0;endFill=0;" parent="1" edge="1">
          <mxGeometry width="50" height="50" relative="1" as="geometry">
            <mxPoint x="230" y="940" as="sourcePoint" />
            <mxPoint x="1100" y="940" as="targetPoint" />
          </mxGeometry>
        </mxCell>
        <mxCell id="9Tk4j7E-xUBaxFbbJqGf-97" value="" style="endArrow=none;html=1;rounded=0;endFill=0;" parent="1" edge="1">
          <mxGeometry width="50" height="50" relative="1" as="geometry">
            <mxPoint x="200" y="970" as="sourcePoint" />
            <mxPoint x="990" y="970" as="targetPoint" />
          </mxGeometry>
        </mxCell>
        <mxCell id="9Tk4j7E-xUBaxFbbJqGf-98" value="" style="endArrow=classic;html=1;rounded=0;endFill=1;entryX=0.121;entryY=1.001;entryDx=0;entryDy=0;entryPerimeter=0;" parent="1" edge="1" target="9Tk4j7E-xUBaxFbbJqGf-36">
          <mxGeometry width="50" height="50" relative="1" as="geometry">
            <mxPoint x="990" y="970" as="sourcePoint" />
            <mxPoint x="1128.1" y="900.26" as="targetPoint" />
          </mxGeometry>
        </mxCell>
        <mxCell id="9Tk4j7E-xUBaxFbbJqGf-100" value="" style="shape=image;verticalLabelPosition=bottom;labelBackgroundColor=default;verticalAlign=top;aspect=fixed;imageAspect=0;image=data:image/png,iVBORw0KGgoAAAANSUhEUgAAARAAAAB8CAYAAAChS++AAAAAAXNSR0IArs4c6QAAAARnQU1BAACxjwv8YQUAAAAJcEhZcwAADsMAAA7DAcdvqGQAAL6lSURBVHhe7f0HmF3Jld8JRibSIJFIeFsGhUJ5771h+SqSVUVPtmG3uqXplrZbGrWkbX078626+5vVjmZHox2ZmWlvxGbTNT1ZjsUiy7C8994DKPiEzQSQCeT+f/8T572bD5koFNka7e7Hc1+8GzfixIkTJ06cMDfuvV0T+/ZNTJRS7PTX1YXTXwO6dPBLmHCKyUAY6TIOfyedqdI103TCVLQcpD8u9e+wrmnST4IGLxMT+11eytXMA5w2VgOcl9z+/XHZoOVIx04BwiOvIJA48sdPjv+ACY4mL41zUz6T854MzfSdaaa7noreVHHN9NNB4h8K7vvBdDSm4nc6+CC4hwIHk9l08EFl8XfN8/sB/OGa+X4gGY+Pj7uE3d3dIlQLrPRtGg1i0wiDDPercU2VcYbxP70oicm04W8LPq4n0c6oDKu4DYwWJGri0lD5tXBreeNvCgoKatFo+Jq4k4rdlBERunYIfx3kJ5eJimzTIm4q5WumyfgMa1430zavO3HfDzrTHmq6/2+ALOvPYXrorM8PKjMbkMmJaKzV+3cILZL28BcN5qeDTgaTUDs8QqbOAKEFphqEcXAZ0gRd6ddqQHaZBiBkch4py0gScfudn45uE4v8hfdfQ8Hb/E3m++8CmjT/a5TtvwT8rPKaTg5T0fs/U2aZPx0/DmAQgfsgfHQpsWhBbH8Z2bWrrF69uoyMjpR9+/aXfeNjIh4ZmbgJd5Wenhm67pKboUbRDRelp7fXGff39zseklybmTw7dfzTmBzPoUByYYoAL4S3CiM3w37yVF7C7e6KM4kStwtegrhAHv8ij4T0YwAib0AGAU+lNSVEYeoFALd53fRPDZE88TgDB08DtPh1/fzs0Cxf0pyuzAfLcyo6//8KP2sdfBD5Tod76NCk2aDVkVdewcOePXvKLrX7vr6+Mjg4GG2sAw7GV5eIqN1igfaVRx5+uHzjm18rG9ZvLGN7x0V8d9EIxQy4Qesg057enjJjRnfp7e0zkf3795XZs2cbF0ZmzJjhcJpot/DcVMWEGy7hMgDwFGcMAENjcbBv3AaLa2jMmEE+GAauw4iQPgyKeKl+8MjNkfqzodNvBkbH6dt54e/v6y9Lly0rO3fuKNu2bTNXYRwbUC9J3z9zpstFUArfRktp0noHbfFZwzGQ8NXb0xO8qoDICOO6e89ey4o8MZA6uWwY4d7e/tInI9wrf4/S5pn0+/btc7p9uGpsA0KGuGQcHsyj/GBFaEDwF3zmaKodX9MpAPKmI+e6cMegjkV8TKieoAEuDoh0kTBGXYGD7FtxhwjmsQM/y9sud0ATt5UmmG+VH2jSa3gNoFsWDdJGgUZ4nB7Xmf+BQHzm3Mwo003mqwlNHoGp8IyiwGZ4piIs4mtIq+OaAlSOvWNjZe/evdbvmdLzhCxjm5+gcwB/+/ft95Jid9e+8pd/9sflr/7qr8qOXaNlZGR32bN7Txkb31v2SuGtJPvVYISNn4bd26NRh5R23/5xjzwwJGNiCIVB0cjM4VK4MRsicpzMRPiDWQoE44RxzJZFHJw9WLZs2VJY6o0pgBS6CsSN1CMPeIiGTHoUXvMy4QWOs6iFR5494nvJosVqyLvL8NZhjb2k/M7RaPknELIMF/g9Km8rWBB8dxgQnd2QI8OWnKJhlzBCihuXPCT3KAvpFN+DsZFh6x+Y6Z5gYNYspx8fk6ERZUhS0aO7d7vSbURERwSM59z5ISexXVnoAJp01AujOKQey8kWfaRX3Ax4ksu6wIANDAyUmXLwzkgVQ4bCEZ6Gi/JhMJHJmEavNEgMYH+/DLDO1iHnE+WxkupHHs7PURgrdEudQiDZGNGxePEbwxmJhA3Ar+pI9EPW6B7JJF/jhE5RXgwgBp58gKQARB6qFwyjrmcof+ocA0hdkeeQOgD0mTrYozowBTLDp7wiO+rVQaFX1K10FDQ6SPD6Z/brusv1CNDJpizQgwTImWaVr9uW/JQTgs5af0YRn/uQj667rQAha9K7463XRgafCDnLRPQ4zxmaY/7A3759pwYRe8u8+XMVFjJcsGBBWXXMsapL8R9kMCBkC8F95d//u/+pfPGvv1xGNfoYGRm1AdkzttcjEVJMyIAkIBgaL4Wj6mf0RGMak8LDpQUiQPlc+YrD+ISg2/EuUMtLodI/UQbUoGYNzipbt20vYwhfghYRpwcwYAjf0yzRQwk4C8G84Nz7Cd1TIOEiW4Q3MHPA/IyOjrZwwYEZ/AA82pdstf9agGLxIxT+fSSK0nOEgZgRowZoK55qt+DhByOleBpbNsrevl4biJFdIzYi8D22b8zypcbg0coixbFDpjXPJrgMwk2ZMXIgfwB+zDeNijoKCoKKI0d5aHQ00G6UW3goFrzBb69GoyEv8YIiQos8xSOswJsVVGXEzBEGKy1+/B8Q+YdeuS4cGXyFAcFF3WR6gDpO45G6ZZ4iI1/bsCse+jayHOiuUODJ/MqAEIDxwlCQBnlDi/xnzRqQmyVDPlZ2Sm9IB38tXshOdLqUtXlWEPo/s2+m6lA9PZ2BaPZp5L5PFUqHAMAXPCqJ83Zd1HIS1jMzRvXoKnj4MXauS/3IHRpjCrO/BkYZkQl+OsDQQ8CykuuW4cCP4Zo7b67rFPljQPZqejN3/hyFdbtTO/XU08ov/9KvCG++aQFtA1LGy7/9n/51+dKXv1q27Rgtu0dlZffKgKiQ4+MSrHhKZvEmkHlfP0Ps/cJTr6PI/Q1DYyCdMpyYoIK4jApsQQ63algUWIJy4bvLXjUcZ5pM+4+KVmElABspKTR0qWAs9c6dO6XkNBBGEKEQpENRZsyoxo9rpduv8kl9RFOVoLQoTDR4TRkYKTjzhOChCeRLuA2/ea8pIlhCqqMEReIyj7xOkvSk/RgR8dqr3hwcRkl7NAI0n+LdksMQCt+GUwANlIrKJwz6CnS5Ib+P8tGgBFbUCqm0ZrPyQBj+CfOMx6EKi8bnnIVjJadhKY6D5Ek5/a3ygV9xEkkxEaefDX/FbfFHUKTwBcFBhXhcxgmcJPh2qPN0SNCtYW5wCvWorzrwnD8eu9BpRp0xIlGjDALGR8Y0vL3qZNujHPiO+jTtFk01fhnYgf4BrzXsVWcMrkEn6jO8UW5IBU+UN9ITSGcyY0Zv2b1bBkRlAMX1SV6Qq346BHQogsALvcsyM6rKJQbnI1xEQl50BHRejBZ7emgHMV3u7dMUXu17yZIlMiCnlt/93f9OI5FFSgtzOk1oCqNmXbonxsr/+K9/v3z1q18vW7ePaPSh4bKU11aylqVVKEHTj5DEsjLcq3CGSiFscCgAZ6NLsgr14QIIgo4K5CsAcfpUemUVqRhGH9ChUoyuv0geUySs40TZ18qL0RMNzyMm4dOQEBpAbw+vinROkKFS6GH3CXe3hqdk0SNaVEgYJqBWlqBZdiCvTS/L5X+FIQeVG5Rs5B5Sio294pHRBYShQXt1RYtH1hwgRU+PIUTZwuio16AMitwvhqELXih99Nr7xtWsFUZ+0HN6NwTlg8Y4H/opSU00yZveGAg+8NMYAicbRxiR4BEML7STXkfEibbS61/xEWa5C9lyhNkmKNzygiXx7zoWvaCjPOSCGmTjHLkR4Eul5195icca5DCXVelrcSOwJnRZOAhSGLSDasQFEImeBAGXjyjTSJyA4A08OibkUKe2CqfR0jD37hlTZ8TonMaNPPG1y2K5k1bDl5QJcaAhmxldPR6BRs6UTXgSLeM6j0YUio70dKstqg16/GO+6LigIR23Aen3dDLkTZvARU7gUV/9MxmF9Fj3urr3q431lqOOOqocf/wJ5Z/9898ty5cdphSkqdSDX4ZUrHmMedSBG9NQzfM/M6IsjBtFAPLaPZwygxx0ETYMZjzOjcJhYlwlx4XSKSyotXAVyZUFAlBQWIhQHcYLY0EhbeUHBmU1x8v2bTs99Wr1NkqLUMZlTd0DKA1DUBYyR4U3KkO5W2Xlml4CepTF6ww6R8kBSajKYTqIHOuBQgvfYVEMXyNPjAgLuR4FqSzGI07IjHjo3XbD26h6LfmjkdOYUAwUEBe8pCyEUOtBikW44idYJ8FAobBCx1EHrHEwXGcEYVz9IS+XTz8MUxknvXBkjLCsE3JhzKJnYlRKQ1AMFGDFwFWURa724OD5utMpTzv5kza49P4zB2ba8KIDnrLVQ6jOhHw5SGveaS8NJzKm7VESrtI2r6SBpuMqf3LuMCo/rNk5X/mRh3mTbIlnHWicdIonTTjwWPsZd4dHPOGMBunQxqR7LmNNF3lW3s1PulqGWk7np9EAupv5Jy/Uia/lglZ0Ks6DdMLBaMHLmOox9QpdR7/dvhWHLFifof3v2LGj7Ni+3XdmmIHQodJRMK2eO3eOpKd8kLv4B2iFZhTmQ2lHyx6mL8oERrNRYx3duEUirz2vxFgYJyyae3viVPk9mjvJq3NYNRo68dy9iYVJXNylOMDJ4JhVZYnx6cEpP59FI3mAx507dspwbC8ju6iouJOjWPMKj1ZoKkyCYETF2Qbawo/KZ62HSmpWpgVzCBDlx8V1KxUt1hnBD16UbFzyHS27NMWiEWI+cRgTUXBism66JJgjgwTwkUcfMmU6Bw1GEpCprkvTtW4NST3X9Vm5yaDO0Xx35dErPTT1wh084iCs84R6Qg4bQjOgfys9youCMq2NNLqwI95GyXTiQMZWdnDAbZSnE0LmGnnKwKKwWZZmAhRYxGqe4oEGQB5KGwd0AiX5g0ScuaZM4Kss1d+GFgXnTZ3SRFKgGHH8UQ9gcSlc6t74EYrMSMI1RXCD1uFrBYSLdsOZDs6jRcLIz22KcxBJ/ZoMurYIKIcuxRsH4PJRF7VsnHAYAjpPnI2S2gJGgzaPgaMDZb2T88jIiNe6KA8AfywPMAWCbvKDdCpQcKxdWFAUBKQsGEDBMQZReAVUx2gjCq0L4qqQMCQoeK+U1iv7QmcBaXD2rNI/oB44DQMCJI1ocAY30hMWlWC/HFlENszxlU4OIeyRpURoQTMMGWdWkPfvZ5rAaCQq01B55W6N/QJPLeT36IlMa4W4jA28LLeva1Ctw3aceQ0Hrx72V1ysPXdRqFXHY3x9BjcMaKbFmaDrUdcmLvI6IyeMBkNkHIuYxiVvycF0oId8JSf8aVS4yzN7aEgKwf4dk6yKRuOJsrQccYEiTzQy8CRZAuxaYdUR5t7b1yhzG9M+BURpInPKia4BpG/684zLRu8jyMhnU2fHYX/FCxmKQC2kqYU3oBrYGXLu/JCb8vZeJ53D8Mqp80OGIUt0Kzo+OkPWKNwx0ikSZz+35UmjazpOGUXwWNuKMwvQcTa+wlv5iQfXX+UF53psOK+DceaaMlrfavkqhO4IUlAC2si4dA/jwUgqZhsyIjIcvsPHNSMU1mxsQBjVyAAqDfzGlomgjXzFgTJxPvxRKShFIESDDUc0TFqwVrCwqIQhBASli8BVGBkhZM/5dbBQ2U2Fiv7grAHFUWEzSi/CMR0acNBznuIhGxWFh1kH0qs3HOl8Fh7rFjZ4KXApB8mJhzbXDlMe8EgFeWqFU0PMBkyaKHN1AhST/KlgN8Qa5jMogWZ8899I74puhOMmKUMtM374TyXEce0yEZdOhUa22ciAVEyRCdnp34ZJB0y60SFDfuqy2P/y9jvvlE2bN1uhoiQCJa6+AIg5rJaWDBQATst81PgWrlxrROBzja8Q1xGW4ZaDabeVPHnmGjD/QKC1oE05IPLUYV6C15ZzWv0pPBpf1AH6SgdiV8MiXE51HoYFF+kirMO5zmJUzRqCHe2g1qWNT8VrGQvy09ksoZM1X8LbdIVT+ehWBx7pVa84dEf4lAeTnPJsQuoccuHMqB35MrXhzCg8zjHt8o0T4Xgax5RIZ1EQL72iEfSyLpRzgOdMQqTi4YFCxBpFZUBnW/oJWaNqZJIIhQRHmC3iHG44EkQyRrwZlePc14/VpVcEV2lrg3e2OlP5VlL7yV+0nU+A85czdzpj8JKnGHoLFGX+q4tyxdnRhNcKwE9FQy9p688yiZ40KgDnMh7EtWj7CMi0TX+na/KXrnmNH3mbT8mOeTpDTuSp2KCjw70S6Xyt/JxrAMNQGuW2rVs910VZDEKaqizpWtAgaAlNhSNwWNRCi3dcJ2Q4PJGGni/uojE/j/RJP52h8pHpo6Tta6DFQcUFCCG+KdMDXB71uokbo9+4o5HGjXD9OU2MKHHt9OkA4vBDT+jt8giaeAS3/bUc+qs+553O6yLofFM+Dcj8uOHAaBX+6UhYI0m5B2LkhT6lEfFUG14VmeUFTLP6BQg1LycXOIkz36LxQ0SxinewF4ooAIJ1nCK8gMTCzLjiYFC4++T2K4ttO3bI+kUDH8cYyZP5IRwLoh4UyBnZOTtCW40e8IhCoTZsjEyyb6x8J207hwTQCzBCAjA4CBalMB8Sbmdl4KecTcVOSNwMb+fpi8Z1OOBA3FqeegaaitsEUiYHyHy35rEMO0VlEi4yCRe8E8f6ghWoI3+gWY6M/6DQyWteN8/N/ADKkHLljFH8afNP6OSjEzr5yOtmuql4ICwaVFteoW4duNDRrxmOH/qkTz+O+sh4ZMESAnJwQ65tLuMI55zQpO8MpwDy444lu6GbaxmZlrP1rB60wFwzIT/auMXiv5Ad0DIgjAQgTu8mcpOIB0QCL1DWQhMGRhYupz8JFoQyJ1MzpXgMCbv4EBC3WscUL7GArEYbTn+U6EBH3qJrTnRtvwoNz1khGLGKYJdlaPMcQDibdrDI7tFlSFj5j8jAT8Cb1y4TPE4BidM845o90VTQGR6yDL47AVzirFSqYKfVz0qFrBvpwIs6wPCHQlJWwujlic+8M8/peMx43FTXCaRvOqATpzMt/DQbRZOHTn/TNeH9rptAHPriBjMF3sH4hUfONCjqoBVvXYu4BIdLZ+WpIW2+sqzUx9FHH11WrVrV0mHiOl3yDIDDdbosS9NlPhlvHZe+w3eMWEPezelzJAj6XHNGbwAWWj3FYvTkkACnonzMuRYsXBCEKkaLaIVkOJkLaFrjwHEBdY3DILAAMyEl1lCk7JNF09io7OO26a7Rso+KYOGWedfePcbFEb5vr/zcVRkTvvzgsZbCGcctygkpHkUaHJzlvG2xNfKJoZfwlT/V1+Q5RiwhKITKKGTWwCxXNg0LQxf4LhApjJ8wufwBGRbTtqhE0jKqyzjvm5BrKgY84FphTb8co7dWeHXGr3RypESZJpRnlrXJY6QLhaV82zUCRIk6wengv5H2p4EsU0JeN8MSktemM1b1I0ec49Kf13JNyLAMt1+48vkaIKxJs+l/P+gsE/InXfpbo1YdB6Nn/GpsSMezT4wIko90vjZ/7bUuIGk7L7nJ0L5u0iIf1/327WXEd10YUVSDwLlDBgzkvSTg0bw6fbXNuXPmapTONnwHGbpU6AmeM+nu2l/+4k//9/Kv//X/WDZu2iakIJpMxuhCKZ1HZOR/4/jSAF5kTnw8yzE0e1CZD7knZkuvb/XJTzoPrxkwkYfSQzPyw9MuUPJREUJM9Zqpx+LFS8qmLZvKds2dkxY9Mj0baJHOP11XJRUwnONuDWVl2zgNKxQjeolcc7FwnR9nfgcqCddNR+VEjkGLRg8NKoaDOPIFvEakIKeBfzMtEB38zin90I9I/wMhqgwPH7iWb6UXa0wKl6K3wnQNuN6Ut+uccjs0ALwmmEZH2AGQ8fBa88gzgM+1lGQqfqA08ORtZmVvDWj6m2kMuiTEhlU4iYZcoieNhX54Yi0py9MsF/4mz3mdOOlvnQlTRUA/Oynyo26cT6UFrvVB9QAfc+bOsdy3b9sWHYzqgjoyttMgKeVZWfMJGvARF/y1gUs5kkIXI8TSQ/KafPiMLCoOPI0LD9roYW9/n292zFX7PfaYVeW//Z1/Vm68+eOkbJdvP+YD3ZUB+cJf/kn5t//235W33l4tGhKw58lRGIiTMFwbyFix8pEpDSWEAtrEWFc56ogjyuWXXViWH77Ud0li8wvDorCKHrqSmnzEeCo3hUAIFna95lB1kK2uowKIYxQxd/78sm3Hdg+1EAJJuH27aePm8vSzz5Wt23doZEJOCg/STutV8q4Zpo2Fhp9mRYMXxYmcHVPL1wmUPypIFcIhS2qOoaMy9/f1liOPOLwsXrjQsoBg5oUsam7CpWzBK5B8WAZyLZCXK4KMwU8XlMtpqkyD9n4b1y1btpbdzGsdrgS1KME3eZMe/ACHCfeDgOkFOwEuouiHgBQnues8IMPPHTmb0I48uLJiJtAK2xRNx0A+kzKqFzXaxLOsLejyvh82EkYPLyTVWZXypPJm/YQ8owFOB45zWhol5Q3ayFNXjmsZb7BUJpKgWdyd9LqUwjvzch3QzdYypFygyZH8BnqkgVCLB0UwcidX+MFFkriG2h7WKtU+WJtURibW09fv29GDmtoffdSR5Vd/9VfKr/zar2vENIvESis0DAiZKVX50l//ZflP//E/ledffMUZ+OlLEY4H5AQqcGymqSAtMdNyCCYYg5gJliOXryif/NiN5cILzvTeD4KtWBUnDABKDnYILQXsDUqEkSiBvHSJ0JoABoVlf4VpVAdvO2Q4vv2975f7H3pYDSgegMJFI6nMK0832lY65SCXfoBGmOGRfZ6hFzxaoDq6u3JBTNMr9frsDuzv6ylnn3l6ufKKy8vhy5e5ATkZf8mP/FxaLlQiiiI8+AIp8/HZ3spAA4SleMoWOHEdMWvWvlfu/ckD5aVXXy97pSzI2gZTjNOYuZXNzsN4krYNKYsmTBUGWD4Kpp6de8qKfym0e36dD1++tJx3zjllxRGHmQ8wIknQpPxZHy1o+kXHehCkHee8gRYxnaxwEdBIXTZu3lIeffyJsloy2a94TxOS1hQAH7hWHoKmvwUKsg6gDFzaMFGX0g8531AwJ4pXPUk9yoB6+mOOXllOOP5YP4Pk+pNMoEWRg0boBLTdISjCz70YH3qiyLV4AjfSCds6GeFwG6PM4Nvl0ZmdqU8980x5653VZcyjZDnx3+fnYmaUmf29ZemiheUTn/hY+Z1/8btqy3NM3/o+vm9c4oPTfeUv//yPyp/8yZ+Ul15+Tb11PIoNsyiZU3jf/GRAOMHoDDMD0BgWzJ1ffvFzny1XfujCMjTUJ56iIXl4LFpRaISCn7CahQsfcVFBDgzgWpfOD78cfT36EZbW0vKCEcCeCQT27AvPlb/4qy+o4bytKZQiuBVtQvj1J57Mh1MpKBhp5YNzg67gWGcPgTiThsYBD64WR0k2Cp+lxnnBeeeWj9xwbTn+uFV+OCmJpDIgA7Iga64dbqTkxSfHtYHycYbH4MNXNBr5W3H6hy963Hvuu79855bby7tr16lzUN1qtAYGK/TUN3Pj3ZrvTs4noBnW7iwmQ4sHOeITg3B4YDfxiiOXl+uvvaZcfNH5Ze7QbMeDa0PJj3SWB+egACV763VA1A1Z4ogJf5SZzs7XXDnMF66nHZqu3nv/g+W7t9wmYzKs8mD0JxuIJkxV1qkAuaTxsM6YntKad/0URny0l31loHdGOffsM6Qb15UjDj+8jKOZwknjaRroKMkrDyEfe4N8BdqAcyOyFa8Qubacgj8n41onbMbjTzxdvv7N75T33lvv9tslwzEwixsM3e78GIX82t/71fJP//m/KD29PKkc74aJkooyjO4a4T0PDOEzOPYcJBPTQYthzghIw/VeMXmYepnZQ7zXgkpTNFZViHGLaryuZMcIZ1yKjD+uI2yvnwFouL2ceSxa8eApDQ8YYeBIxx4V6FroyoeDEQCjHx7FFgP6xa3CVNCoKEoRMJ0CdUJiRcWEqyH+D0NJHvvKQk2vLrv44nLqKSeJj5mWheXgPTWshotv4XN2GSZQI/jUueLEXhr8KFecNX5onUXN4fkwVvT0sfKOYWDH6cKF88vJ4uEITaOIp+CYYIDpm7c0S46TBDINpDJ3QsgWyQtaMgkDhtouXrCgXHn5ZeWaqz5UDj9sqepmQIraH26g3488hOvTCLjhuHZYv8+ONx5PWvPOEV3LCLLIx5oYL4GC3oAUH5kzVZqtvIakC+jk4YctKxeef1459lj1+sihzaqhUw/yOss3HRCH/qVDD0IYNA3qxz+F7Re/feXM004pn7jpo+XM008pCxfMK4ukK+jLgnnzyvw5c8v8ubghu3lzcLPLPPxzZ5e5OF3PkRsaGixzZg96vXHOnIabO2i8eZyVfq7Pg2XevKCzYMHcsliji0svvVid3Hnm1yOeyjPlZprPeiJPA1f1rjIIPVOiaFDDw8PeWGTLL0KsDKN8IKdV7YSw6spQZqxXVnzViiPKMSuPKLtHtpcH77+/bNm8VfFYW24l0WPKhwXUuVVJnKtr9974kT1nevV0EV5tka+dNhJV2hQQfylr31tT7rn73vLemvfKzF41Jg9OSFzPQswrYCrlsCKAl3HOLvhHgDRSHD0ADRrl8N0h4bO6sleCHx0dMZ3ofcSY0kEtXP5jVMgrnI0bRk4jN+8IbDnxpHP20MZxnQUuOluZ1EGPI/lL9oxA1r23rmwd3qI5saYpIkQ+AHQwxLgDJRDQqq8OmC68FkscCGBKbvasWTZgixcv8ggxcJQeNsQ/zj0wTjrlW9CVr+go6GgYObHgJ6eOJR49lzFVmpBBO23odrtEsGqlF0CL13YKEQFMX44poEkzgfSEp75kGODRVa1746ij4xGPE084tpx00vFesPT29Np4k++o27YMXE6dHe9wZKE4uZBNdRU/byTg/L6Tmo70IXyx5VEGd4KirRPuzkx4MZoPXoa3bvVNkASmQtUqoDz7y8aNG32bJ3q16JV8u08ySMIHgIUW3nPOOL18/KaPlE997KMapi4rjz/2SPnJfQ+WHdtluQRRcdHwcigVDT5cy4/C219xaW8tFx7w9FcDoyHDB00m8uouq9esLrfdflu57577y6z+2eXDGjafd9Zp7o1IA75E47JlyaKcAQ6v1xhSnPmphwEe6gmTwKIT59nq9c4+47Ry/rlnK3ai3C9j+sorr3oh17w3wYlNIEQ8IU86A36VWdXVctUoR6LOs0slHHGJk8x27Rotjz76WLnzzh+WzRs3lRUaLh+2bKnXPmz8yB9w/uFtQite0KJbw9IIJWQ4/zaw6sEWqFddop5ux47t5fnnnytr1q5RZHQKUe/Qq/yr3H6UP52mv+EUhTN/wnM+SuPsVF6GdiRHf2u9xX+Eg4/cZGPLG2++JVncWd58/Y0yxO5MjV6aDR9ol6+tB02YKiwh45SjmYAWDY4RMo2S/Udjaltvv/1W2bhpY8iCBklxPAVVQXHdoZvSGp8hO1F1vhVmF35FCCdc+jlbprU8AcqLmweitUsjz7vvuac89vhjpU89LLKgLjA6noGIKXQ/9ISsgw5lnPH7v//7fwDy7tFd5Vtf/9vyyqusfxDdXa1djD5SR9zjKyEF5YpLcFaoV/nUJ24qp516QjnssOWlt6+rvCZaa1av0zBpYTn88MMswKiMyLxdAXBl4+i4uBau8yCXECLgpyoV13KEybmXxSNMRjrr1q0vt99xZ/nJPQ9onj1XQ+Yry2WXXaRGs6Rs2LBeo61t3sRGplAxPyRv52S6/OGbq6EkD0V5L4oUjbzgNfPGh+GlV52l4fX555xRPnz9NeXUk09Q491p48FDSoep4Q4NzYnEbgyca546cWmPoFnhzTJ7dZ0o8xbQjG8tVmr6hix27RzVHPepcuutd5R333m3nHzSSZ5CLF48v2zZslnxI1IkpdPh/NvZGmIKFDsXo+yB0OoAfBVrTnFLXHUhOqD1yaAedeTycvWHLi0nnXhc2aTG8s6773rNhTtSDOMZKbjsogFtaiIaM/JIPcFVcNlic5QzcRBllsIYvwajP9HWxJviZcg0aPFi4e23/6A89NAjZUjz/Ms1fMeYrl+/oexWo/btXWQMJ867DVn2hOmum+EsduZzYEOaUp139hnl3LPPLDtlTN96+x2vKRy96ijJmU1+kcYjBsqBn0DRC0PNiFd4imyuESEeOAbIGp9lggGo/hjxhe5iSFXQsnN0tzq3h8r3vvP9MrxlYznjtBPLGRoI0D54ur2Pp+hZSNXUcNGiReWKq67StDDWrch0xh9gQJTFzh1byze+9pXypoTrQoghKpKMkzFytmB1mb0OfhrAZZdcXC69+DzNZeONRwsXzvN7OV55+dWyZXirlOWIMsReEBRONLLcHlGYZtR0SymrC39VSvnzgTnm9z7bxfQBCwn+mjVryh1SkAcfeFRzwjnl+muvLueo0ubN03xy/jwZkA3lzXdXa07H8DUqBXYorwue5aXkLit3UbjLwzpM7OB0LPLQMV+9K7taWbsRUjn9lJPKR66/tpx84rFqpAu9/rJ69dryxhtvm8flMqbsP8lcWsIgRLLwGdpVJuGPOJ8zLBIFEOaQwLHcdOwaGSmPPfaE5bFu7bpy6imnlGuu/lA5VYZ+4SIMyFaN1NaJtuQqA0kZPdyudQ8gY+g5rmq4yy5HuWm4KOfMft5oxZvfNJUTbiyYHl6uu+aKcrmM98qjjrCRpdFs2rhFo5K5ZdnyJaIdjz545MCh7GMUnHLJmtE/bUBsBY/BX8SG342KK/Hks9VLvEpfxhX3xlvvlNtuvb089shj6ljmSBZXlisuv8Sd3vbtO1xPSuyyUc9R1+FvQsqmEzIdZxtbDjHRNbGvDA70lUsvPL985IarZcRPlOx6y2uvv1XeW7fOazNHHr5cBGKnMJ1yjqQiZ/0rS3cOtS7iBmonX+ESYtQfYeBKHKbR1dVTdql9PvDAw+XWW26T8disTu/M8tGPSG9PPkn1oVHa629K1tEh8yIiXi963fU3lNlqU6JimjN+rxqQTRvWla986W/KGvXc6IiFYKTKTZ6smMTHfB7gpbFXX3FFOfaYo5SZ4lRR/TMH1HgWl7Xr1mgk8ooqh01a4268jA5Y7d24cXPZoOE0U6cNchulVBs3bS6bNm8pm7cMly06D8v4bJM13LZVTuet26rTVIsKZ1clbht+FGDN2nLP3feVhx54pCyYN9/G4+yzTvfCmR/aU6/86iuvl5defcMvEoqyRHmzMprK4V5N4eOaV2IgsgdOhUIGPFtChfIUY4/oXy5jep6mLoMDakyqrHnz5gmzq7z55pvib40M6Zwyf8F80yEdjceLqKK5T60DyUM9shAvrnDJHb6Qv5yf5pTcUTj7ZUTjzPM9Pd7DwwNpjz76eLlDI7H1UtIzNaW65pory6qjj1JDj4fB1q3bWF597U2vj1B+prJZNiDLaoXtCE9AJtBiWI683LnIsdiJUl5/7VVerBvQNSO5XTtG3LHs2rnLb8dfsmSpDCtvyYoy2WBVRzlm8K4Tn8PPk8fuNOTCuM3wNGmGh9ly9UwcjZQ33TPyeP31tzUKu708oakci5TXXnNVueCCc1Q/Q2VgsF+jj7Hy3AsvFN5dSvmih59c1ukA2aSsUk4OU5OlEfN+nGOOXlE+8fGby1FHrfDIC72gQ3rhxZek85vK8uWHlWVLlyml8vOvti9eB6Cy8/4cZGJumJIgL8up6kOVBeVGRzjniBAc+OOJWuQ2Mrqn3HvfA+UOjUq3bF5fLrzg3HKd2sqqo1dKFoPS0fnlyaeflV6MuLOeNTi7LF60oHzkozeqnodEy6yVrn0ydRiK5599vPyDX/18eUlC3refKUsIgUxxKBCLPDDFVnPGqBSKhjU0MFh++x/+QzXUk5QZizWYfY0IervK408+Xr7yla9r6LpTSrRYisZj/wwp43MJcQdi3MrreT6Cc54YqjBiNlQKpyLEbIsnHHE+cy2avFFp/dq1ZZHyuk6N5YzTT/Yq/ETXPj82TUP52le+We6898GyTYrshSi5dtMI+gnkz1Vn40kc8s+FZsti9szy3/y9XymXX3yBKk/pmKnKqAxv3Vluv+1O3zpcsGhxOe7YY70WY/tEHiJHae2nvAAKSETNi3/ySwdnyA2/lYZ44dJjABs3bSrPPPV02SpjfNYZp5YPaRqxYsUK1RvpSxmRLL53653lO9+/s2zdsdMZZKPJ3q9ZVs5NOQDwQAKMaH7aA35YsJvZ110+fuOHy0c+fJ34CqPCy5tefvmNcsstd5S3NQo85dSTy9nnnC0FHawUI39GIAaRdzkVGK7NDwaXkU/KHx0lb2hg1IhDLjQgXsz9yCOPlGeefrosX7igXHXlh8q5553jOzOsM+zVdP2Bhx4vf/IXfy25qAyUtfLShM7yd0LKqM1PvLJioL+7fOiSC8uvqY3xTh3LV7J4V1P8b3/3++W5558rZ515pkZEV3lES1pl7/bhzSJIQbSpnzDmUX57OgDxEGod0QWpkUrIpktlHS8vvPBS+dFdPy47hofL2eee5pEHBqxXBoZvVW7csrP8z//uP5Z169dJRkOaUSwop5xyfPl3/+t/0FRmqctHPt4HQq/x6MP3ld/8+79W3np3vay1hKAKAJqVhSWkYnL1ni24sDeo0cbv/Pb/RY3iSKXbI+57ZAu4j9xXtu/cWv7wj/6sPPrYc0obj59zO9IGRMNdbhvu46XJAiuHfWE8UDgKjYshrsKMAOf8+MOI6Kw4olHg+VLkz37y0+Wii8+RtexXnCpBKN0yeNu2bi9f+MKXyv2PPV12jPDqw6gM/QxRXP8ZZCcnQSpIVEYADRZeWPletmRh+a3f+LVy9hmnKK14goDI8W6IF156pXz5q98oL6nH7+lRLyoZOD/+zAP44jMuW5BKYJC/pRhGoiJpKMGPyekgik1hlP3Cc88pN2gUcNhhS9WDR1posDv369/+XvnBnfeVXXviGSDLwq42YEHqQILrQZDh8MGtU79FTGHU657do2XenFnlFz51s6a2FyqN5KyDhrlbI9FHJf/vfO+2skEjznkL5/t5EFPLv8yjOsAhSk/+NdrGg+egWJuivOQP7+gpZWTUwohllwzkxvXry/Kli8tNN1yref5pSjcgmiqnGuievePljh/eU774pb8tY9L/pJP5AFnu6aAppxyp0rYInj80s3z0+mvKJz9xs+QcxoE4tiewcfNvv/Gtsua9deWoFUeWuRqhUhc2YmSJOFz6uA4+qO/kz38VhFPZYPTrKDkmdIxGmJqw/WHN6nfL3tGRcpFGytdcd0U54ojlwkBzYmH1jbffK/+LDMj2kZ1lDiPmufPKBRedU/6f/+b/pannYrdHd9rj4/smaIAPP3B3+c1/8Gvl7dWbxBY9SG2wMEJBdDB8ZBWZhsGowU+yqhEsXbi4/It/+ttlyeIhMcu6goaXqrg5c4dkyTaVf/8f/lN56pkXNQXoUuUEXWjSQ9ggIVABBUAAbgDCoQIZ5TBc9TtE/GYxYkELvPhFGNzC3wmrji6//Ru/WY46+jBCFKGeQPg02rUayv/lX32hPP7cy2V0r+b06nlcTBOdDPDYNCDIwHkpHMhzNmjnfezRMsS/Uk44ZqUSKIVxJjTy6lVvs6b85V9/uTz65HPeqGeGFR9lrRm1Mswyta+58r/SBFrwYi4iuu3EE/tIVq08svzipz/pzUpdGoWlcvX29Jd1mk5++WvfKPf+5FHvTA0D0pZ9QtZXljd5dZi8nGnIOIwHdbZTI8FVRx1WPv+5T2rqdKo7CpJBgnp4+9215W++8o3y0KNPKJCb3aIrXaiEVRyHRFnizwD/wZ/QdGA42QOCfrA/KHiMeNORfvI8B2syC6WPN33kOg3Vr3IaHnWg7rgbsXPX7vKt791avi2jJm2BuDsXe6BYy9wseydAK+PRa+RBGLdsF8+nU7vZ0yZkYblxiL/hbTvLNzUK+a5GZciuklD7qHnrRHaE4wilejJM/5aQw2uYdVLp85Yt+u8cOQm7W23ijFNPKL/6i58pRxzJ2pRMKfSF093dW55Qe/33/+F/LxMaRbOGN1/TLXai/sv/7r/3Imry0epGZXQEzZ4VltouGqCGg3Agx9AQi8+6A5tYBgc1HVEloQMUB8tO+VnH2LJlm29fUsHjqmiYpbfes3fMd0IY1uaLYRG81wPwK2fSxYaxuCNkV3H94JHPQcN5i10Wa9mghBKmIXSBxbffn6q5N+kcOAnA63A+bOvb51Z4u2EpiOSe49MT+0VJLRoStAQ8OsJ+EF69KF4VzvMorc1hwnIlqgwtp4Tta9Gpfuytz4rHgRf7QyQ7nZnvIw/yXTB/njeQwQ94KJPTKm6X+NlpWSjAYO0yZLk6/U1w/pzlKAN1S3m5e4efD4MxrXF608bROHXWDw7Nky4oW5anVU61BuLZaq6iuUwup8sQ8kIvKAfrWY5XQqcRVfy4PXtizwsbtY47ZpUXsKPTqvUjfF44vH37LtOHOX/qA1pTONJMFU6Z0cXm9RgdlOj1axTEhi82NirAznRUWEb2rGGRZmyMN4LxHp19KpNGVRqtsTbD+iHlgM893lAJbdpGbLJkL0xstmStDkcdBL0WjoS4R2dk2ac8V2q0c2Q1Hh55IHOEp/oZ1rQX2cXUGIalSwsW+JWkME/bphrDMBEkImzn9TCUTfsUmziZShXTBobbUQAEQ6FUSWISJWVRDkw+6+BGJkb2ju+RAdksJR1RuFKF2XVegPF9hKK4MhUu8etMaVCaUEZFthlWOGfPu2cNeqEMkqarH6vrfM9C1kbsR5h+ts7bd+10b8PGG+OrTNELUZ7JDSX5if82RBjxSlHxOeFn+EkvDC3iQQQD77btO31rzHQVYINhF7TA8dku4vKayPSbb+MS33AKC9lRNk0TxQ87Ewf8CHYoPkg0ZrzsDcGhuI6ijpxV0JsObBBcbmM6jH8Uzm8klyNv6oY6Qu6gp4wpF99f5vZ29JDwy/NW8IFj1Fj5rby0XCs/5BMNNQxFxJAk5EZe3aVH9ctel1niY446uqEhGTRhEmtkwX7p5aimcDt2yJg6D9EVbdQV/tIg4AD4aIY1XcZxppNEd8lrphoextQ5VkbNvxwjEjpi2gzlZ4PZ4EA8JY7+s0nTht9n8kFe5NF2GaY/l8GbzXDwYn6YVwTv3MJloX3RwgWaKfQLX3WiOBySGRfO8DY6fXCr8VdYvHJA7aoFTNEsSXowHqqKXZUOJLzGQYSMvaksZF6B23i9mrosjlVehVg2jov1CHa3stKsMggaRAXJHLSBJmkH8VfP4CbzxtcPSvDrgkFLjuHqIp52lYCsUqR1KoE8bJTj4aFsnAlNPwAtIHlrguk2AByUhgrn1fdMV7jOOEig4LyJbVQy5LpNti0PA5fpgI7ohJbMdE6FzbAEbrHOGRry+sRkMiHznbt2lZ3qvZFFAniet1ecCJuGiYQaTWNAR/bs3e3RKp+CJO/gTby6gQhP/PKpA7+kRmndAOTAq2K3jKNxwEM4cwMdh7Uh6Idz43E+QYsedI5GpEuXLtFIbKHfGxuJqgN0Ht096rt58Nbal4IjGk8F59GQd6ebFCe/PBYPm7OQRzRmxQVl02R/EIv/bg2WBy70xxdVJjY4lSZ+DLVHsB38EG+ZOjzwoYHfpPTHnpMF3AlkiqVojDBAO2LEv03tJN+pw/QwFm6hJ2NTWYNQdyoPBWObKpVqJglTXDJHpdjIKAMvztR4DAjv4gjmCRRZpCBHms1btrSmHY4/JKj0qy8bM2ABCeCLKRT8wpexFdcnfhYuWuDGDColcQrRoCq5BcztWJfDZBl5yfAwjKzlOhSAD9KjoBgx6GE4GIF4RER5Ky5xVBAKykalKELGfjAIOU/tOoHhJgtgNGKgFtd8o3g7doofFloJkLOcFU9PRZkoRxiTmrYDQoY1nQAeqAsWNLmVSm/fNiDhUFB0gVu4TOdIm8YjHUzE+WcDuKKR8YkC9AVD4hGR8g/xZ8m6rEc8C0a+7ulpgJUvIHk7FL6aOEqhMpbCW/CHZg+57ORHEwMNh9HdodGpR4AO04hI/NB4U77I0SNb0YKm+U9XIflziaTLmZY1M8cpb4epgjHwbCXI/HAGJcYOcLMBm5AzAFoPHXjQDFQyjzmJgORUPoWJBtmGNCixSGSvM0TALEYx7zdOJe5CiEvm5Fu38iyM0pEmkh4AWVBcC+TlCmE5L9HHuaDECRc/hfMDYODqmtcS0mhYyjE1Vwq0+bjUPhsQyueKhJTosMuO+Tp7B4Cknf7pQRZYIx7PE4XHVGG2pgxcpzIEF6zyq5dRo2GOGoI4GN0DAX6Sp4SprjkgzfCbjzgji3zGgTAiqRvWozBo9H4JKAlOyB7iDkrpSWt6B5VDBwiXdCyyMzpE1tFwFKV6oc527hqxQi5ZsrhOK0Lm6ciTFOm4ng7grZM/XyshxoD9MPSolDvWP8iDYmaDkgHRCITPuZoPplKi4Xx/ZohbzWyXz7fetQonoAPne0xM55rlsL6rfeU1C7IYIAzgJCDeDpJxGHRyOe3HsMuJHngYcXR1rkanTHUSnJcc70Hlrf3eTqC0SIM46FF39rtrhpZPwXBkqENnkGgIANfmqPqz8eHn/v1sFIC8oVbDWV3G+rNI5+kNxscUJgO46RKSJzxUqL21ALasbQwDVzw/QLGYQmAMAt8Rdmyywapv40Pd6iHNp6JR9CEJEoscQ7Tgg/TvB8gKBXWvK4dyMkz1yrtoeZokPBSXb27skCKDp5COErwPNGTTCU25NYGcvUaksnEXK2iEjCgbHYUNiAwbUTm0Tr6iF0b5mzowPTTlhuh44z5zft9VaBlr8OLVejy0ydoHT8vGwhychR6E1EhCIp1xBMAc7hAhqJAndGVQ1YNj0NpFCYJ0dLw3BiPiBtGKj7QfBDr1hmd62Hfjqa2MgEcBkDRZ4erMCInRWPsGRnbW0i8avXAYKVInfBQegwSEXBQZZMjc4RSQ9kz7Q94OB0cZc00ZaSPsQ8qpS8jIVGzQGBFhaCIsnMtWcQCus59270wcV0ZRJJWfvasPNQQaWsUwcXo4el1wrIQ1jtVmjMeW4WEra/ZAB4MsRNMBZjzYdNaZRxOIpsDzNBqaNTgQhQePCPmpkF2jI+bJQoOm02FxQ6GxrsCkfBvQus7shcetW9LRGOix6U25tWhjxAELSsecf7umDGFA2mU7JJjMhrM3bfuC/iQZCYhj2OvdoRg0yd8GrWbLVGqXRgGs0LfSOTIcZaJHjs+B6mcj0DYwlYyBsqCwbb/yVkPl7lxrm3qNgwCfVNyxQ6OCHdu9Axk/8qIuEpI+aZoOmKpe7Oo10y4cEEm4zdzj6SX67M6SUHd4GgGonGw0QyYGImteCZ15TgfJYwL1QJ5Mn6wX5O22AL9Bk7Uo8naPr6DMy/FChSY6ykjKU04jGaUFLf4afCZ9glxWQciZdhtrYzZQDo96A7hbSHuIzB3peDpbbEIA07AwRgaGtB7OKIHEb2uHifP22W5uMZmOnRPrn8XyBfPmloF+5soolyLNbezxYPv5sCpmdDfv6ghGPwiYdx1uilyILtcRF3kFjkA9JdOGOYNDfoGPJKbAEJYy9z115t27RlQBwmVTGUKnB2ZUwgih08g1lQHcA5VD0z6VyxuDdMXoAyNivUxadDe6ZoiKothQGzvod9LsBONwbrk8KpCXjjBXGY/qdMdt1MFZVGiESz6ZbveoDMhO1o+ol9QCRqIWl8FTPTm2Xc/lVr2MAt1HFKmdplkO5ETMIKMfdSwOd5RwiFC9oGsYD57FiFuwsY2eeDvQK0T6ZkjNo+EcVlHoOGiw6J+z07WH7NLRuXOHCDD90AwabOjA1joa4xpipGfXNAYwywY0/U0gfKo4eOAJbd7Jwd1N4xBInSgv6m3bNtbG4jOSUZpGPuBAW8fefWN+ITI618ypM+/9UXA7QkmbNU/b5qE+OtoZMgitNVCfI5/tGn3w+gm1qNKvUVNPN0+hxyZQ8E2+ckorM7Bw4rUE0UHo8b4FGoYQFebhlRLznReCaGwoJI9p5yPspIMBrD/PJmyVAUEwvm/fYLAJTSVoQiu8xjkd3hpmKly7InCO9F0H5nfEpWAdo/it27ZqFLLb/CTQgHyvvsFWk5+smKQFmAXOcvQqNDDmqGHV2fnaJKZLHTtlQLiFa7nVqPeDzM9QM2ymxW++4jJAOPDPzldkwSYg4sN8I9NoWLxAeof3PSgmCEV+RAroXXhRzzErV5RLLjyvXPOhS8tF551VDl+2RPWNGrLRKWh1AvJhdyh5h/JXAFmRI6oDnl2aZLwaMp8OmvWCP6/9rz+UmoOytEZEOuh9B2fN9IgoZcoJP2mpf56t8gezMS2SEbuseVqYeg38VikO8JuOeLHhkktIHmOdMJ7Adkp0lkOGihHpFp4M17Q6YqXbDfqZhj1DvuQgrIkzFVAwC0YgVBt9NRSMKQ+kcgeGduNI/itN6mvzlm0e8RDnGnZeijc+/HGmzBQl0qsy62PqEjZKnnOwfICM3qz1Vq9KEJyFYiTWD6g0mFBUFdxmTV/G9sbmIiLI3xXcAUHvg0FWTtATz1JGT2HmxaJhZQR2VSbVmCTIgi5DQMo0riG6y6vkOCBppr8JySPnXI0mIQuvnltL0VhMtgGpQs1icWYBlYbj9urwULpmfs08D1UmB2KJhgK5nW1jOjCzDptzjCLjINoMUX3XwXUWrg2MPLvLyiMPK1dcdlG56vKLyyUXnVeuvOLScuklF/iVCOa0kYb0yJNRC/XAyGcA40UFGGrZlIQ5f+x7iHTTQfKVOM0zLmXWSYFGHGsd4EnJhYNB45kO3/asdAD6EjZl8aBm0geiLjoasyDrqDOctpC7cN3ZGsSf2hML+zxAyR41pEH+5kE/OuotW4YtO3EbyQQt+soPQ00ZOvP8oADn0OnVyGr+/AWaQYR8MOTQTp54QptNaOQ2zhv/bFj3WabxyETy4TWQuGhXNCFROSgDLsJAj6lABvTO6PO3ZFgkMgOqDVeo/HvH94qRLa4cyQZRRjpT+uCQFdeEdhiF3+/nPObNn2uD5lB4EQpfo0dRUNq9jIgksKYSJcB3000HjteZ/NnAg1GCE14XgPEiaZNf8mKeP6ppA37S2uEHucP/M4PocBubjVMYNiun2aEGpTC65jH/uIVL+IEwTz3maaeeVE48/hjRmaWhLL3W3HLmmaeVE088wcN7IMvJGf7Ji0bEwnS+pMeZGgKH9SDWoijuBy1zyqnpWgIVwAejBub3yRsNmgVd34FBEdQclFIH/MRtVO46mJRd1BcvofYrGiqNpIeBaq8FtMue7cVlNtDZYLx4beMAD1WA7JzD2+VRPlN9Rj2tQjSAHMk7RzYuryB5OSQAt+JDi/UgRliIAnLJb9Dsdrv1iEeXzk1laPLgCDuw46zEPLUYhgCqEE3jAWF6DT7978LXQrAizCPJpAuCWMqgwx0P9oDwyrngBdqtpIcE5Jvu/QC+6f2Z5wY/NS+lRaGIZ9jMV/EU4/gm7ayYhM7rJiAbBEdKbnnRENkzwTC1uchs+hqtIEduI8YdDxRoMhwsrw8Kpi5jyvSDBV0UnUZjbvlJGehRuAPjfRgEdoJGa4wseUkU08Gxsb31Rcv7y5IlS/w4Ou+GqMgtOaYs6YmZzqGoyMqlc3z0duxMHh2JBcvWWtE00KTbCZPl1vbT6G3UKa+uqRMMiEcljcZtqqLBYjIGTTlx6TP1ig6TR+aTfHQakMRh2M/IFjx0EGx25M5h9D7Au4F5b41G67U+MBos4G6XseJ6OvDosfLwU4GSerQnL3cruTs3Z0hTKvHmKa2yhmeWHbjdy40PL7YqLIwig4AwkMkF/JDOm9YBEtPQKAaFp+JRthSO/iIjHb4UwcFBXuoqSyaFzAyJswHZPVq2Dm/11MLfvziIgH5aaPPGVZeVOu6CBB8OlYCYZjASyk1kDvd/0OiEVJSEqXAQRgZzJm9uZ1N2ggkjb4afrC1xm5DpHOkqwy04pPymANIdmFZ/CmK6OVsjEKYiSc//wo+t09tcR8R15kddMZKiwXGlGiz7VRbMJsNwFcq35rMfj/RtGhjy9t0ohetnDRANbi3Su7P/hGsFTwudZZuqvFzHBsCIIz8UfS8GrxqnXm+oG4rbqNLTHG0nPovrGJzYNBcdHfTaLuoke2rO6Z8KWnzK0a7ylYleh4Ce+IJl8mFhHQMGq5FvG0KuoEdnnnQJz7hDATBxTismuDOHQY1hacjP7OqMHMbG9mi0Oc+7d5n2sRF09+heG0hSJMBCdNUCCwQBqsCuWBTDNR/ZoyxNmUGUt0DzPgWGxOynB99TCVloVnG379jldwvANItTMAukAA4mCFfAIQIU4JiNMQgH/nkGJgvn94DI0qO4fgoWPlwsmONMSFRO5tuZf8Y5XOXJx9OdTvHcgZmtoSrxkHQgJzUibtGxBoIlx7yYRMsFYp4/iGJMBVF3GNMBz/vdE4o2DYMc8PEQI5818H6YBkR9gMODdqo/eJaf9NGpMNzeWjZt3CRF29PimQIzsgrq8Z0T7sCw9yYAvaBc0bPn7WzWpiLFZGjqRromkMapCHeUrsULeJwZHXjvi7F4m1yve1z00vRIon9Ehe7Gfhi+hcNhTXfSzDdpJ9CY6Yimi4+1QNGX4x2jPETHFnpGJ7QzXtWZnTPP32DIWWOohXE4h+m2QiOfPKf/0CCokCephqQbvN2eaUo8K4aOKEJ/3BVj3YNNiLwGYaamfYPeQasWLH0JvDYv3ekZGdllIfr2JhXrAoYgafwMe8fkOFIZsFK8dQrmPDRXMJUCTd73GM9Z0HtBoWF9pgDSNN0HAvJV5vM1heDBKWeFcOrBOyG8aMhDdBgQ8DOdTtPldjB+WgpTafB9k1kSOn5HSX4YGtIy/eO2qXGrQQ5o020q4MHgYDy1wuUwHmFMdW1ZYGR1qG7hhWmEv9RX07TzV10KeVjz8lffeKtsHmZHIm+z51UOE2XN6jXlLYXzukoQMQHQTOBhU+SAMY29GPBjqvZjeBiy0+OyoNcsR/qTn06ZEA5GO4UAPBplxc10bqgKAndmX6zJsPgdaPBF3fBFNo1MNRpz41YcHSC85ihlOujkzaAw8qNcLq7+woAMlRkaBZl27XhAhEc62ejZg58A6NSLms/kOjoQppJjG8gv6hreqBueDg4+Kk3qUHF0dGxrQCbrN20qu0Z32fgxmhtnBE0qJYmSWpLhoYfm/jyWOx4vxipFnBmX4+wQnWGEtxQxv2wVTpH46XmGtw17Qwo81r8WQBa8pvugMCmNyKOsvO+UW2YEmFdoV2PIHRiGqt7f8ncCWaGRD4tSflaho6wAI598BobYHCX8FwFlwEI3U0vunJFfLhinrBkyoygZfiB02fg/9/xL5dHHnvJLiNeu31ReevXN8shjT/qlyF5LaDUyZMG5LhoyfUrjRWzNV3/eb8ODY4xmopErYeUj6wzIcxNC3lVn6pHhHJkGY8AogWj0lE4uNzsCNlw1LY2XBkPjJnqqfKeC1shOLvgyZ9ZDeu68ZhpIXcSzWZSVcMwuC/AyINw+Hq+jsZp3oIUOJ6TfZW2Ew0ca8E7eJ+NSONZvujylYn+HIptRELAsmG4zxWQ6E7rClHNP7TTaeQORs4CFMltdECbjtEFxcUuUXn1GWbhonoxFMB3CDMHwFCgvUvaioQVRGayEnYX+mu6nBafXgdHi3jbGD4AfFCUqurts3rzZC1Y/Q1YNQOJRIoA8eOFKPDhWAwWuXOFuV6WwSMf7GOjlkFFnZf/dwYTv88/RiIiV/2DImdpxxUN0sdNwasCwcBtvw8bN5eHHnih33nVPufNH95Qf33u/357FezMgS9mg2FpT0MHW99mDms4xx25AlpfRGArpITEGxLy1ZdHUhdCptqwiLvSlKT/j6MjwwKtpZdColznip5GklYZ1KTZOeWFTYaEvDcQOgHbmw5rhpMarXyywRqeKMWXdhelTrK9UnZQTBY/o2Cvl6ZzjoRX0QyzBT0KUqw0ZnzynSzz8gC8zXrhMt23QUEZn5H/7MSDMRMyLApnmcteMD7dhRFJOKaHK3YQbO4qDIWF+5xXXDoadkQgQzrxy0aIFEkaNkseFYYFN5y3DW2xZE5+REoupU0EW9KcBUTd9Fv3Y1ObbzHXqAORCHi9n9uaYnz6rDoAQlcVTr70yINzCjZ4nAR5oJNwiZAch8gXfc2RX3t89UFYUmEVM6kgZuZItD3mYivqWsnoXl2EqNiqfbLDavHm4vPzq6+VZjUYYiWxn6uM6jaSUCTOgDJyURcPYf8IekDbxlAXbsUcaxovwpns/6KQ5fTrwckQUC9wBkZ4GCyk/9yF55GDqUPkAOvOXz+0gtglI7moHvM3fn/EgHiMBflx5YZ+pYj5a4c45Y3WNgWI9J6aCEZbn9COPpktInMSjK8NwsemTW/TR9InDlFWfkrMeFBtI45r0jDbR2VwzC4oBwZkgRiBC0vCPIWCTGUNNBSEWUFlkYc9FhMt4qJBhcftMg3vJCBGliWlW4GShYuW3FpBf9bfCDgESD1ZncktZUxi/81MqjcyJZ97Livzw1mHffTDyzwiQCDJh7Zk28UwQI6+ELAdGi2EqBjrDqg63ICv/AJn/VIBxD378kJpoOs8qY3qSeIyf7eNgd+ap6xY/McWw8kiprBtMPYRTxw4QdSoXS7jxDpI5hU88ZJmy3OgCIx+Gxpk38fqLs+kEvSkhUFu4QGcenYAx5dWa8RRuTFMgBC5kuAvCkD3pelTExfsAeDlVSh4gzhk5iRvfgWMjn7//K3wam8cZtBXhohPbd2y3LLw50QYkAP4YObUXoiMsRxtA8ps8p4uytWUKdKvz5oVg3JZftGihcKCj/IxH/vH4iu+cih78k5rXT8IXYQmEJ2WoBBHFRwNvRwKEt1LIZSVg1elp6PDTGMAwIxA/Pl3nlQw64mlcCcCNGn8w7xFLQyAA/nTTAVF2yg8s9vbz7AWr3QzfEYjxTJ9FzF0xVKyWtRNAp+c4WJ4HQgiEw0/hSklQVoIRPpQo2+498dpH7j5Utg6eT5CdxoVSNBXDMAmn7nxU3bAPgyDLk7PK6FvKzGnhp0mmxVMoDiaCf/v155JWZbWDD9AFTmpiYUyH6l0HwpyvHLKgp6XBst5mmnZJJzAT35AZBOk2KEPSxaKk0lcH5Nkylp8eNx8c86hPP8sDPRGe94BoWpWZNtPjmrSBZnjnKJ224TCVM/eK8EY4FrOjAQpX+JSSusCQMvoJII5o/VkILBPUfTQ1j8y7Cc38EwhrhnvapPKyJ2Wgv78sWLjQ7dIZViCeRfUtWzEgwQOdATpEW4XrXb57FtsgSEsefDBLBeYlMFIoldEMKtB7N8jFtLBUwbjKTQLfMp2ruVRY0zACsMMQmd5+5/YRWzQXRHEmq8OFQYA1HQ7LOMkpnsJ6C68yJE/S45y+0oBPNrJgSPjIMNunzQuPfOm8nwTy7tyxzY0Y+4EgxJWK44KZZ/iiwnGHApBVpvpDKYrn+yhKbDmW1fZZfOiCz0hwOzRGP21rLAlUr/4iyCRNehqXkErkf9IKmji8vo9v0MKPQfg0GK7ZEIbS8kQsPDjrTAzdBiErYh72O7Q64mv9+pIy5R4Q3q0SskQedsqbFw1x25L3l0Ye/ElOSo8vbikSjr/jHCd7UtfSAckj0GxkvguiuvEOYV07Hx3oEOg8GxXfxGmnAVzeSg/I66nywI9z7UomRFH3LFiil30yXtwyJaU1RnG0UR5t4C4MMdzix/igmxDwlnHRoT11sDaJhyYfQF5POuPES1fXfs0cev2KBzqAAMkCNelipB57peCRJLNnx4fxjSp9fu+9td5cVyn7P7prYbPRxbwTSmHlb+VhlLC63K6lJ+EL4igq+MTlGRjW9IWNJ2GEICT+NURjfSKUCeNAGMzLL+bahgH5RhgK33IOA18Kpzg4hb0gP+FbyrPU8xpovMIlHtg6PGzF9Xsza6EqW5AxpHJkGd4PoB7fMC3u7dm4RVIkYXnYdXsBimG7eybnGPkDmRPnlh8arfQHOmQTeLr20Uhbr9n16D0gFVfI8mOMZ/jhxu0agTDMnpQYkL/NXcPfxGkkcmmq3BAotRLvHmVkGprnOlWdcWYO7cVkOitTaJNun7MUk+MyHL/lOCkyY/DKJ+cI/ZjOMYVAh2CTwMRBjxmN+TH+SG5IHUkIegdCOy9fhDMhRkfRKbE7OXdCQ9UjXRqBgAca0Q1fKT6fSTFd8TtpemSUtj/zRraEcSa/DE+XwGiNCuLuGN9jAswHP6XFw8iQJ4MJi7uwPGQb7xQhD27teh3R2AEagYhhKRbviyTROIrVARQdPDOhpFjPJUuXFn8gJ1Bo9aEocrwHdYQ3YTOvc6HEII1acXxkKS7hUungRI5rL8Bq2EQa6FkIYVLkhw5jE5CbxiOsOm+MRjAoCiQtUPxC4I6QFzE9jAzIikigsrLCAM6dOE2IKHPj9QbmulkRjoF3lYHpHI2GdSOYJUVWrGnUkV0rHOFYNg1nOYBD2cJx1eQu0lLueJGyb6MKzcE1Py5Gd41qRCaDxsNSsGTXpBTXONLhppMFQRkc/HfbcGFQ4cXhrg8ueIkRb2Xb6YYLny2oPNop3Pw2o+s1JyB5cbjA+lmvM4xQcmZfEA85og8A+QY9vuMz7jtkY2oULWPbgCa95jn9k0A8KcZe4qHHm8/n89h8o2G7jdB7CpDFqKZPpIP/lDMOXfVdj86ykk/15xnASOGAJm46MiCcR0+82F/pcKRMfIdsx3a1G/GjRk6nu2c3BkP0qhGhjSRtABkrLiwxU47+fjVCFbiVcQXPxUTUmcotXrRYw1QMRlzjspI2cctUleIv0SueVsziG21IQXbeuSpHm46PTckDDeWNgGnq/uyBfE0HH37jtOiJQx/ckuID3szZnB6lNU9wM+EFXZQXXK4Tkm8gy9ss8/uC+Oeznrxbgbk/lCgvoy3zoMN3Hep+GOdVeUqH6iBDbodbVkA72i7WeoSjS87OhwjzimsDQ1/m/Bg0gEbdzreIH5SETzmE7DL9By77JBBPok+ZWQ/yKwTgWYFumHL4PWT3uz+DnRrlOPN4SNDGM/2qcyGLyQDJWTNjREQyGyfhp37Qu7KlP+b8k/Nv8pT+vE45dcrM8ZY3o22+Rtdn3chRGPFxjkVJ7s7RYUPBU59KA5rEE9dKA+/yt2nEGbxM0xyxNPky1LR0tB4Rkb7SSHrsPmaKgj6SmnU7RlK0L/a29M7oadEF3zzwt0/zc3YYcj+auysQ7ATSkRRh98xgoQzLqsxVahschZOOhSE+bu1FOln4LtHsUmPvoqA4ruW68YsoH7gBj4/v7N/HS43CERauppeAMSvi1tdCEkMyM3KxVTkeoqOA5l98ISAEzEN9I+LLisJPOJQ7tjxH75CQgkk3Nbiq7fNGISmJXyEgIG8cab31WwrKHQ8glQCDyvRnhpzlpzBP58CBt05HuNNAg3OEuZjQrGESjJQjFg15pSCQBj46hej1aMjUJTSmgs6yd14nEJTB0CMP1oMYCVrGlkPIg+uRXTu9mY8k4OOx8azyQrGzPryGpHNnvgpphYHrOkQQFcgHB0CX6Zzfhq5r82MXNNgYRSOGm0gXvWwTwCMPXF5DtxMIp6wYDriDRU+fVBdcZDrjKR7jwNSaC3CB5Au8xG2lQR6NMBy8cg1ADzclOH3sSeGLBWwWpW3YmNKGTY9NZDzGz9Q29Es5uR6Ixy5Ap5JrgbhgRLBf88BREY6PH6Xlw0msIVwQBbl/gVuBjDCoRIANXMxtn3zyqfL6a6+XGRpu8InJhXKLJUTcwqHBsqi6hUOzFDdQFgzKaciNmyPFm93Xo3N/ma/wubNmlnlyc7kVJjdHbkhuttzgzL4yINw+jYL4CjzWkzUOC1jl4Ex5Nm3cKIO2Nm5binUKTxwQShPlyTCg6e+EpoLhpfy8UChHHeSJInDmzs+a1Ws913VlC583tylaRgM/hiPCMJA4pIl6Nl2ONmSS7HRRr4mLS4PCWLwckMxi9VyyQAHIRxlRPzTguEtA1UfCZpma0JTP9AAHwQ+y4I4DO3KlPZG3ZRFPJLPnwRvYkC90K33bPlHxWpdwg+9w+OOoADInOeLpHT1VNRvJb8iG/LkjxRvRuQ5jG3xBl96WRUOzIpk4KXhy4PgBU7+ZPvKhs4A/HAaF+m7qSuZhQyR6dCq8CJkIl6Pic+ZVkTz1SmS7rIrnwK+DtkYHCLAwDw/k4TJWZuGlaUyybE0XtKOzYwTiTsVykFNaIlkf27x5Syu/WAx2iczrXk2nuKMYoxyjGNTB7Z8YHdlV/m//8r8tX/zi19Q71U1kEW0lM3O+VMY60flfdP555Vc+/7ly3DFHKje+hDVWHn3s8XLrrXeUNe++V048/rhy1IoVKiBNQGmg6EoSPXiUIiAgrnMzko0TeZnxMGzZK+jXwgWYv7LotHnL5rJ+0+ayYsXR5VMf/0Q5/rijlKdwRXGTwu++575yxw/vLu+t21z4kpcoRRNs5NP0TwUZj8PP1CV6hK7Sr4b6keuuKZ/5xI1l6ZKFko8Lp8aytfzkgQfLHXfcpZ5mW5kzV3PP/rqYJheGIQCeHG55RH5RyvA7sAIxyCBkyHVEIyduSVIPl156SfnUJ28uRx62THixWAr6G2+8Xb5/253lyWeeL5u38hpHTa0U6TymgAxvyqaJa5mEjwsZ9f5yw9VXlF/47CfLgvk8pR2fjty/v6u88c675fvSjQceeLjskUJaljCltNwK5MAIA9x5IEvLgbI5tPkvkAfdgj76ypqO01SOSMuTyGedcUr59b/3y+XoY1ZaNmg0wuDrbz958JHyn7/41bJu42bJNPQMvmhYjIaG+Aq96piemevYUyTeRRc872eBwQq8yoIGDa1eVfBJx6wo/+S3fqOsOu5Yd8punNIdOrqnnn2+/NUX/qa8+frbJKy8uz+HedOL6UnIOUZZSquyApSS6TqGjAbO5j6RgYihzVXidpfFC4bKb/z6L5crrri8jO1lOQD5qtzS5dE9Y+UP//jPy49+fG/p9XTcqVQW1gbHNZrqKRecd07587/8z2XFymOCrviyAeH+7j//Z79ZvvKlb4uZiTIugxBlgAjlEXPVUpFhlxouwr3uuuvKZz51o6z0/vL0U0/JeNxe1q5eX84++9xyw3VXliOOOMyZoBwMsdvfh+Fs7TG0KkHnVsHBqWf94bPXTOPHuMi3buP6cu/99/vbu+edfX75xMdvLIuXzCvrFf7ju+8t99z7QFm9eoOMh+aIph9GhLI1Kx+A9lSQ5Uc5ADhA+aULMFJWHXlE+dynPlEuufg8PwW7ecsmNZQHyw9/+OMyMrK7nH3mmeXkk0/yPXjkFzRC1UMWIRP76zl4hLzO9tZr/ymWcPOLyVI6KRYvwHnksSd03VU+dvNHy6WXXFRmz+p3g3xHU9Q77/pxuf/Bx8rOEfUmjEbUAzdpHwrAW0LWhUFKyFfoTz/p+PLZT32snHnmqd6DQdnefld5/+ju8vAjj5aZff3l6JUrvMibD2BiaPjWsssEqUn1gDziTFn5Txk5zKc4t9NpRDo6UtauXSf/RPnIh6+Trl7lvSDoHVOXF1581d+ifezJpy0Ld0xyHjWJDg2TZ1hopJs2bWoN9dnuwAiCbG2Qap7wY3kovf5Kj2rh8CULyuc+84ly9dVXOj157x3bX1577Y3yPbWVp596uszRCCVHBdYM12vQQx7QtO2IYAH/5K7mLYOGYWND2rj0Cr5tENpNq4qGOyg7ys7tw+WKyy4sv/ALn/UbyWJfVFfZuXtveeDhx8pXv/b1sn7degWFISTvsfG469LfN6Ocf9655U/+7C/K0auOdTrABmS7hnH/5B//WvnmN26VgCQYvyTY0fXMjjTNAUWQr1RRSBYPFy9aVG668QYxvq88oEbM18/PPee8cvONHy3HHHOUGQDi7g0CoUBZ+QHg5HUzHCAuacCK1VXXtsWcVUhGKQ8//mj50pf/tmzfuqvceJPyPnalFOPxcv/9D5X1G7Zo6IVBVFolDAEj0gOhlVeFJj9pQOgJ8FMmv9FcOP2Szdmnn1Y+rYbDOxQefujBcveP7/bbzy655OLyoSsuU/hSy4wmEMYT5XDyyEeunpBUZGp2AgnvZP7Cb4UF3z3ltnLHnXd51LV8+fJyk2Rx8skna/T1XrlLxuMn6v03bNxSJsQ/cos3xP8sEHwGJ8z/u8ucWQPlogvOLZ/8+E3lKBmKdzXy+IF4evTRx/x+kqski3POPisWWlUPiGKf9M0jgFa9WAiCdnmj6EgvjGzmzT/rRB78C8lOfDAae+KJp2XEf+QPjX3qUx+XUTvLje3Z514ot9/xw/Lk08/FO3IxwSF4N0KfRYPnvTiTpqmjnXqRYU4qPfOrBGS0B9Vrn3bKCeXzGqmfeOKJGrHsLS++9Eq5/fYflOeffbas4JWRV9DRHuGiunNheC9CLZocDC0Uhz8EkfnjD6MR4UGjfRnygM7bq9dpNHyHprA7y8c/dmO57vqrS//MgbJ9+24Zj0fKd2XQ3n77nWpUKBdl505VGBDW1s4/5+zyx3/252pfJygk8uuSMk+wEv1b/+jz5XvfvVNDGwxILMYo3yiEmGD+hJ9vykZSXmk4Q8P2JVKCsbJbFXbxheer57uxHKuhG4lZI6FC2ERlWhwuuwmbBiUNxTHCJGgLIS5CgKwfRCOGr27NM0d3j5Rvf+e75dZb7tIIYHaZu2CuetzVZXiYb8DErkkcr+Gj8Y7LCLazz9IcCJS3CeAybHa+OlM+7lxhFnjHwjlnn+n7/i+/8IIXpq+47FIPF5cu58t9IuDKrcoaJQ7wZb1uBVao7CWfloL8oNFbRmDwQ8N5h6nC928pjz3xVDnu+BPKaWecUd54883y1JPPlM2bhssuDbsxHhyRFAWz96DQlEXyMplZNTjqRb4lC+eXyz90STn5pBPKC2qsjz32mHvzq676kEZpF/hj3yg6D5NB1rVP+U2OgPTXMiu/cHRGYMN7hIECFhsKUfjUC5remjXvle9979byjBrriSedJJ6u8FrZLbffqbDnvYEMStCjXvJZrcwPXalB5g8wbfMX7QJIvy+VAKOOTvcoYM7smeXyy84v119/Q+HbyHf84E7J5PlyzIojyk0fvb6cc/65ZYAPTsGFDWo04FabmATOoP4HL+gfBqbVkShSV3HUcPB37Npd7pQh/8Y3vlPmzRsqn/7Mx8spp5xSHn70WU0tbytvyHgoy5ADNFwe0a+2oE/GFP3+oz/9c+nViQpBzmqLv//7v/8He6RUt3z/WxpaveW5ZDLeKSAESoiviRdafCR5pBx15MryK5//lXLcsavUE4V6gpeN134oK43VF2ERLrw8dzrAFQgfcoTlQpSHWPITPjg0y8PT5194ubz+xjtlrYZhXlRVXTDf9C1Spe6v7y5h7WQqyPImdF4DMd0Q/y4IcggcjOR6jcDeeuttz+Wv/NCHynXXXlOWLlssQvAgXpGBZAjE8F00akHtJR6/XcjH+VSwN68b4bCQcpk7b64XDt98653y3AuvlFc0XH7tjTclj92ihTGX8azJgKnK+H7QTsM5XZxowKxPbdy0sbz66mvi462ycMHCcsP112hKdYn3IRDPV/V54tcPnkkmnJt+72K2jkRYGyfWO1rx1EdNh0iifsSHeIy3xA2VDRs2WQ5vybgy+nj+xZe8oY7agwYJwM+6tBGyPNti9tRGYdRLlp9zOuJYc0EIGAEwuFXKrWI+MP/e+o3lmeeeK6+8/FJZcfjy8qlP3FTOl/HgblmWkcarolln6Zww9Pgpky7jWkaXsHCk09nlDn/KQL8oH2fpHx/3XqzR8U7pwTPPPKeR+cayeXhruevH95a3NMWEHvrHYGcyYFCY0nSXw5YvLTfd/LGyYKF0GmkJ1/hWXDFgDeBHTIVUTOIxGB5O1XiU23tBdN2tYdtM3vuoxsqQFEGTwAJH8E4TmSZkvpxxTTAPcs0KcsXKH7jQp7LZoLRHwtgce08QKMrl3i02LEEqRg4kQ6yV/iFA5t8EskfxkAcqQwA8cadnVBXErbKzNExfppFHjligEPzLkQrLyKup5MKY1MrGCTcUoOG4liPciiIqloPIpFxwPIOyeNnSMk/zat4uxToAX1rfKUM/umfU2fqdL9xFcK/1wSHry/nrBxNRLh3ipUeNgo17b77DAmF3ueTSi8tlcgvmzYHdthO/psOhupI22G+i6I6GFXmwmOfeWfjOhyOKb2oTqmeLlCvqXI67ICs0jTrmuOPKpi3DGpU9XZ578UVv5wfI0ykqTU9fIqTyBRu1nhWFgYicFS7c1MmUvxNEah/wzJfuNw3vVE//ZHlBhmvJkoUapd9Qzr3gnDKTdSCl9cu/hRd8cBZfcuRNmPlU2YPfKiPi0EFyow1ZYRRjv1yloT/REZZ+vAD92huuKYuXLysvv/KmpnE/Lu+uXmNSKgBUje9/BbaNUjii3P4Dw2GM/ORhpTUy5TqEEYVCeK3baxSWRODILdbc8sLzzy4rj1pe1q1bU37ykwfKzp18uAmBBp1w5k/BeS3X8Du8cR01VF0F+DKAL17cM8vP9ujnnnux3HH7D8vGdRvKYUsXl2WLF5R+5q9KxS1SEiP0fCP7dNAS1BRgvjpBjSbkEesgixbMK0OzZ2m4uLOs37hRDZZeLsA9Z645UAlpQ1pOeZOFXMoB11LOVhzpq78lN8Lxd5et23aUZ599oaxWr8L+Eu4SzRDhfZITCuFhvow8dKExTXEPgEm8NIF8HWYmnAf6wgt8uL3NBjtes+CdscoM13osQUlwoehV4aWLsaeFSoO5qpfyt4+KLx9qH41OZ6XR4M/hACMupg2btmzxpihGXx7dmK4AXiyHbDyCWjzrgZzlRflAkGuOVFJf7NTQ6MUhQKcBsu2z8AnmZV3AkUce4ZEHn4R1pyokOl+v0UG55pvlQrdqbr7m7DDkY+A65GgdkN9bBHSGfITrrJberc6+f+as0jcwWPZIH3bt5F2skiO6pzwpKwRc1yQSeEpDvorPD881AemFZd+vnkONjkIpTQiKdLrgXjg7+lBQ22BleoSGMx++9qryqY/dWD58w5VlaKi//OT+B8rjTzyroanSSyjeFVrdDCmy/dAgTg2OvSPkOUP06RVZtAKPpxDpIXkZMn7HQcPnSkfC2KOe5Olnni3f+dYt5ZUX3vDdkE/Lun9MVvYITR3YH4J8Yti3v+ytCmQpdcABDaOChSmeyd+NroIrqzp2HJ56wnHlJuXL91PYnnzPvfeVVzVsHh+nsmNFG/lxCzArCQWzq3QscwXoP85EGrmecCpT4HOdaaJeN2/ZWu6998Fy+613lq0aNp920gnl3DNPL4t50RJlEB8owrjkgHOv9VNA8osjZys71zApXRpQHZ6w6uhyygknlD2SxZNPPqmp3TvSLal+5ZVUHO48wqeyUPZaZiEazyy2G6qaPybFX1/bLwXFGHCgq8jC9NSCeBcvb1H70Y/vKw899FAZmNlbVq44rPCpC97ul2WHJvlx8uYFyqQfrlUHsKMgdMg8pEGrzj01YcJBR9Bd142PiTI02FuOPHxZma0R+qaNmzWte1fpFI9ecJgF8aC0jKRExLJKBZmkC3JV4nIc4g3+5MwBdMjVZ7XljNf5vfc2aNRxlzsX7s7NHtT0SUaBNUxSiymdqYOQJdfmTVGEUX7OTZjx+7//B3+wa9f2ctst3y9r31snS8mTufFxoATWF3hBDPviexS8XHOp66+5slxz1eUahSzUUH2phu8j5aWXXimbNPdl+y4PKA1v3a4ecXvZrl6RTyrwoA5n3onJK/V4RmTXzlG/4JdHqvliO7c9GXrz/tIRHNejuz01YAcl1+CC85zms7fecnt5+aVXy7HHrCo3XHdNufDCc8uKFUcofldZvXa9RwGhZAL/hbrapzK2G0JAXncai7wOhQtFwdKzoe3Uk44rH8F4XHy+ZLGsbNSc+9VXX1evv893X+L2IYoWvRRGzPNXkdIp+PM56tDK0fJzrteEw3tLqcSrulyqddPm4XL/Aw+XH9zxg7JFdXDGaaeUD19/TTn11JPL6Oguz3n9lUArfzYAEW8X/acCkodyo3SlzFMDPev0U8u1V11RVq48qmzYsKG8+eab4lNz6CMO921uasMyrw4DS5noWHipN0oc4ZI70waljbIGbszJZdDtj3juGvAMFZ0LDWjd+o3lnrvvLXfddZdkPF4uvvC8cuEF57lxs1bFLVhlYl6QA/TxA8635hkGIvjN65QbOKkXEY8M1HhpcPKrjyvz5swqF5x7Rrnskku8Eey11173xsKjj17phWXTlz5QtqDDP3lTLl1wJtAR4Y+6N7bDHS+/j3pNWmRiVsXjhg1by+2331l+cPvtGi13lYs0hTrqaNWPjCzPwBjXxVc6/kWSgQXFI5y7MEsWLyqf+eznND1eCKKhS8KZ2LhhdflHv/EPysMPP1q2aQrC7SZYQqAIhJ2F3G+msS9ZMLd84uaPlEvV086Zx3sOZIVE/L31a8p//sKXy4svvuEFVb4QlxXvoZEoMpoxYa4Vh/0Vhq8tBOLUWJSl8w0LTVLiOUUFQheL/8arr5X1Mnonqae9/vqrvHmN91+y72HNmnXli1/9enns8WfLqBoyYTGHFC2omjDCCaVpAvmgoDEHVOWSuQA/YIUVgUH1ameddnK5/uorymknH19mzpppA8ztwe99//ayZcu2cvY5muKpotgZmnIAYo6KD16Sh1BcK68vq1wcE9cRH+EefiuGN1u98cab5ZFHHi07tyvPM04tV15xeVm16ignfO6Fl8q3v/+D8tSzzP9j8RCtcNGD/M8AwQsdzoI5s8v5Z58h43FZOf74Y83Xw48+Xm67/Qc2jldfdVU5SyMiRp0eCWbeSgsvXGJMU+6IC1mjh15z0nVInohMFwnNg3AxELyuAF2+7577FLXfd35Yg1m4eGF5SYb9m9/8XnlG094xsTCufKCRhgBIWpaR8k0dgDZ+jD95Zq2B5zrjkQJpNTcueuSfP2+WjNbZ0o8ry/LlR3oh9xvf/I4fi79Wo/eP3HBdmTNnbowGK7VYv7DXIVy7g5Gj/Py5/ADheJMREpp36oRRM+1kwm+V+9GPHiz33f2j0j0xVq646pJy8aWXueP5nvTih3ff441k0RGonM6Ijo4pt6akKjcG5OQTjy9f/urflhVHsw8koBqQNeXv/+ovl/sffLiM7pWAkCxFUuYWDEyL+P7x/eVS9fC/+Q9+VT3NLJHeKwpMKXpK38wZ5evf/Hr5+jdu02hBNNxYKU8UCMZakpGXISiLO7CMEMBIOeTiHmnbQCyiQ9QojvJQYzjphOPLL37u0+XEk47xlIUUKOuMnr7y3VtvEU+3lOFtvI809howx4wF3aA/lQEBMJjEuXIbOOZJjjZ/4rFHl8996uZy9uknl5l9Ye2xflTGrbL2t2q4OCpjzN0Aep+UJTApX0jGn3Fi9IfMIyxKpTP5uowRRzRkmJptG97qHZ0XnHt2ue7aK8pRKw4XLVJNyGiMlR/d82D51ndvK6vXbXCaiPlZoc3HkEaoF55zZvnoh68tq1YeaYWj8W8e3u5NZOxw7OsfKEcftdLrIqQNeajMkg0CjXUElDYMiuUgh6w4vBanOCKtoTH2xyfHc0B96kAGysaNGzUafqkwlrnmikvL5ZddUhbLeDDE5y7Egw89Vr7+7e+VdzWkR1cAeEnIOjI0DAidCrxwjc66DsHVmXrh/R+9fIhakUODM2U8zpCRuLocdcSRItSlEeC+8uDDj5dvfvu7Mq57yqWXXOwRqlmAhsuLv82D81Kcs7JhkHNMlJqIkE/4ActTwNYLcF9//Y3y0INPlJm9E+Wqyy8sV159WZntu2Fd5d1315a/+eo3ymNPPOO7OSHjALcxtZsF8+eJj30aUR5Z/ubLXy3HHH+S8zQvNiAb15Rf//wvl3t/cn/ZK6L7PW+vVBJAlmB+6TOfLJ/+2IfFGNtvJFgxO2NGb5mrEcdXvvbl8tW//Y6mIvGOVYrlTJIY5ZMX4VNxhPKqNRe/9sKzZvEyGkY7O8V8PJMDuLIEKFXgYylL+dTNN5VPfOwjZXB2fHWM/okhLHeEbv/hHeWLX/pmWb9xWzVobetO+ia0BAJ9+VEWIBc+Mz5AiiLrzsjj02xhXzRPCGEwodunEdvd992vEdC3yrur3xM2XJGWyva/6bVAURGffnACIrTGNcAh+vNcF37lP+OUk8tnPnlzOeWk43VNHhp1KZ5PCjz51LPli1/+ennh5TccBiOV40OCJr8pB3i2wRO3q446snz2EzeXC847W2HISk4yEmcaAb1cviQlff6FV7yehozSmEIpDEg0Fkgje79Pt+bJCbwwnsGLo6oBIUyhkntMtfmkSJ8M+pWXXVxu+vB1ZTH7Tnygd2o0a98rX/7at8o99z8MUaeHH3prwOULotZ5Lx7iVzh5B57KR9nlkk/31OKdz0icceoJ5bPqXFYcebg5NLnunrJ5y47yHU27v3/Lbd7/weMNXvshTwFlNKP4nR8efvqj/ATohzF0vnKRPX/yKw3paCe8j5XgnTt3lH6J+LprrixXXXVpmTd/jjodTU9cc93l/oefLH/0p3/lF195pGxSJmrDsWzZUrWDMU1hFpYvyYAcf/Jpztv5gMQTr64UWnWka0EWDIIM4ZYsXgybxouVY1k69SgDA4PxLIZGKQwLKSCCZrjnR/l15vauzzJ1KAuOLbjxOD+40Jqpxq95skgzYqBHMq5omZ7C7Bc+DXXJksW+vZaWmnDmc/DKo/QYIYWKSxGs/FJEl7fhAAtECgEkf4SlS6ASaQh8RoJbhVD3vXg50xA/YxI4Oz3dWKUgLIqJWjiUMv1U4gRffJNJFiFlGbTSz7nSJpxrHLer45UIUR6Ud/nyJWUxz+NI0WKNhXjlIfy4AxH7E1wSysT5p4CUlwnIz2nxwgXlsOXLJHd2B6ueqScxyl0wRhz+Rq9wx1Qf3EYd3bM7XPq5Bb5nj6eAKDdraDxBjeMhLuK4NbzTTuEKG9HojnQjo+COqePaXfjSPWtl1M0pp5ykkcci14PvvkgO1AVPlvLAIRLwgQyJpFj4KZPkhsuyooupY5YhBpCzXfznCGpgZk854fhVZeWKFe5XIK3UihvXaHRmWX7YMtfNth27ysZNW8umLVvLug2b7d5bv8mudb1hY/g3ErbJC8Nr1m8sa9dt9N6SwE2cLd55vW690q3bVN5evba8u+Y9rxcesXxxuezyi8vQ3HnSBdq6eKYs0oPly5ZJn3tcCsqXZY7zhNsRa0boWExzKijaV25kKmksSkkUULI02wCtwZmzbL2IU/ktVCwYj2939UyUbcqIL7+xe00YKV0D18FOXEnc9YpaDT887Ny5vWzdOqweKJ5PCAz9t2gRQmXxbd6Z/h4LBcNwUGAqi6GsiuKXxbD1nrzoEeF5OkgDkUqSQmxCM4xdrTyqzRnFyShGY8iERWBeG+g5tJhFsTCsblgc5OFyVSc/5UxF9dmOsIareJagrskYg9Yvg8at0nitQOKHtMibd5GOsPNSxbQcXF5o6HQI0GlEAa5Izohhtqa0swb5Lk7dRKV6gDY8YAAwBI6oEAZO5VAYGmC5CBkDw+iVsgPROMnH0nKZ0ZOQeTjT0TU644fdxOcgT3JLV5EW8oyyRlpu6bKADyR9gOG7y6iMkrZdjfcIQJ2DpytqSDlyMAXhUdguuZk89SoD5oVd1kSgQZzOGHF/n0idaY7Cgrd2Z0mOPNDWJ0Nn3ZFM6AAonx8i5bkhhSOvto7UcoaQ5CLdRDcfO+/SVGmRvxwwLjqgMfqIdBM2uGyHiNHPgTrBR+HHZNh5ZWh+NiVRbEB8G1fQg/IrYwqQCBQ+zzz4MyQiZBTCjR66R0rLF6x4XDvDpwfodXBYAVnyhCMvQY5Kn5x/+OV0Fgf+gBGr+iQkytHy8/ITlJC7Pf4erXBbdPw/NWQeVoqGy7R5DcyS8cKAhOWOzMFjOI6wt23L945GntEg8CUHcXae9SAsMdqufUyKoa7l4588GBHx3gt//zVl5yPeFYEB8av7FMAgKza4NXqT94GUDUB+1eZF3lIqf8pBjVZqXHMFeJZCDUYj0/hQNbompZUDxQ3fYaH8yAhe6e28p4KfEJxGIwh2nArJ4eHaPLWY0jW3rP0pB7lEz4ZJHr6Tt3PEEa5fxdOYfbOg9sRJ2/QJUDw4MWUJo0wc5sN6YSR0p/j1oLyJzNNtMeCFUIaPAsqWbz5P/GgvitcZ/ljbYYNmvpIBvsNgYGDaUzvwzUzDMW0Vkhs2tHXh6a2/jqeyuTAkN75+6lHYK4PhVdEqgJCgQBEyH9A33xVESlokyy3r4+E2RC2IyZCJ/aYrNVoK6eEwVpgFVDVYGis9vknIWagd7lBgKvyWwAwovsLENx/+5f0TCBiAL3hiasOj6js8IqqLcsaYHpp50KNSplCWCJ/Eg/KmsfCtES8uEyUXKPluye3uNRgyTwWUD5o4GkiTflMGTTlMgsRXNA0RfvNN7Fy7wBVnr3ouGjH1DDlosqjr90tMR/9g0OCLNhsfTxpyA0QWIY+I36/pCL2938omCI4CwGiOJAAanXtmx4LfTmGy4Z0UblQ6Nc61bEOzBv12NBQeHi0L5xPfgkEeJKzZmhoL50x9W+DIQAhuCJrMLxD1JL3R9A3e+ZwGL5lqgVCDEu9k2eevJAaNoGfj1iZnmaBDdKZ9ff2Wa8g7uRA0vE2wUdbhJ8/lWKVgtDTf30ySLtY8E/Bj0KyrENUveA1n0yYceOTzJO6EBF7g5swfC1Ye+qkSeLuXo2oeZtxEJ/zdFZ6ziFGKI8VUj4j1mDhDobCsVH9byYAm0z8LQAaxQI8GzHdYg1nClKd61h41Jh4aY8UdQbp2K+QdnqkAmjj4zkXUZhjAGSXhRTGDUlL87lFd3tgEx5yeeT5D2DRCnbLATQeZRzNNJ1AfxDMXB9hrggHxFEpyMHnkofIyEmLYzP6eHHWwTuNPmNY8TOsg+SUYT0f6aZ28eSs+a9HbkkXGs/ZA3qF44quG43yr3qE4VD3CuZ6+liaD6SADht/8xI8NiEZjTHFTzshLkb5m34OnMMJ3vNMZzfSiQZMi0gK+ri55N681IfVAY8eQz1QnOzg45LILuxKHrqZoMuLshSJb51BpBgQ9rsfrSCxv2Tu25seRaZphLdB10LXXhpHdwAGRLtopZ16CjkGzqVCCSASWnYhglHA8MsK0qAnSbqzWfjOLwBn+U7AmwByKlouGsOqGKDQ3EB3DW4bjvaNw3SyMIArTFNQHgxRgQuTf5Sdf+/yAXFQ4jSN2r2pKJSVBadFnHFmHqw2v0uxsqPgRbgiLBtfGBeiheFMV+1ziTezIQfE0BjdK5c10QcbUc0pBlrtJ5/3gUOQFueSfVwkyInN9qMCRFN55zeTeeCu9OgrCvDN3HJmh4JHH++WXcsgyJD5J6FRiNKY40wBHuDrYwh2fkWA0VsufdNLVbE0P3nER0IrLfDvBIxa5iA2eWMj1kF2GxD1ypQMOUyE2LPrLfEoXt4Kd1I07G5bLqqPGxrWcb3N6+peNFAybCbcjwMarjtSNYzrgFy/6MlqHm3b6CqLZPMMLoxB0MfNvQU2XNDgCdBaazTG6KfB63bx5bVkIfNaPPFhzhLTMBBGOb4JRq4GZxIPAOWBVWKBhGIMRyOpoAnPs+Jh2bKYxCI1rMuB1aPHaQHMvVwtW3U8DnUJLP2fyZaGK3g/IPNjqDvA6QYaB+XwCwozUgQc+dFAyXOaFIw7jMRXvnm7oPG/efA8tESx2gp4H44Fh3aE5JVMY5MFi4XTQzLPpmpA8dPIBOFz0ScPogzeik3wSrq55TSWNmB5RObiBMuLM91xEidoAB9Px1HlNWve4ajQOF6lskwqwPvmbPHX6FJVQc1TeLCyaJtcVkn5T4ZuQPKQjsV+yTV0Ln3oYkgEJY4qRrCBcFrJ37Bq1rrNelendaWjUSM/fpAvAQztM5xpBuBeDrWMyQMhTfuoCvXTe6EuwJeDjTBr9yJgHjY4GKaRJ5W34XU/1Guk10RKSR+KITgPCU+j5ac9mMpoqBp6355GmwYkvwA0XZWREnW+NA8B3DqwTUFkMuxnu5vAMYHUcTIa7fBKP4aELI6IegqrBsqDEW5ti9TwrXhnz14BJwnofaAoMaKeNsLyNyluvQgnBYVNbrw0i/HB7D2y4dTrh2Neg28kjMFVYVg6LWFS+38Quy64AhcetQdZeyIP3xbL+spdPW0ggH6TcQJa9yUcnDfMjDeCpY/x8lY83sTsJuHbG9JvH6HVznQt8zt5CLYycSIS/OvB0NjhNepFmgy8dfBWQRUuCFW1IHIzoNhkvr0UlTUdF+Rj6M/LFGDenU5lhysBnghnSy6H84QIPmsgDYG/F7DnxWQtSk6tzVgCjMD5laYOmOOcpJJKixzjyxux09tgYGbvKC3kTHkfgsJmM5228NZx8GYVErNPtHNnl26pVErU8YpRLOc8ghGcjLBdGKEYG5iXPRMJ7Tcc0he0UrMMAYTa5B6TRqeqG/VVp6IJngC8nxs0GP06g60qObPhXOFNCpme9pb83OskAaLCqI0Ao7ilhiMII+A+lheFYKFvAt3Adzp8MiHC53TS2f9zPWnAP34JBsYMDg5XdiZLm9PD+8XFmkwy3pcxtVpIUZIb4HBc/WzQiovcjgQXmIVgbkqdUimZYQl43wwBGGzzHwKYhVJOhKrtBXWKhDm/b6ltfkZbAtix+Gsj8m/y0yO6PRcO5c2erEfZVJan5Gbc7nh2SEYFPD7Pb0XaMoHg6dqZkN58XXPOVvwEZRNZwjIn8IpHPcskTyjVXaQYxXtYh9rtQG6HCvIdkxw7m/LXJ1LwBaGB4Mcb+kp7KAWQeQOZjIEjXnFynhCk6aHMwouDTEjP9ec2KoX9oxJCekQdrEPFirDCgLUICGnlOPZtgngTmh2idvcPafklJZ1B4Cnz+3CHjOYkaoJOorSARPl69R72+8yBC4emnPRmUzuWDADTqNcaOkTfNnMPlUxi082FVBThvKk7/xp0zmw1rmlLRmTkUNHBm+DmzXRqR2YhlXsSTP/WpMx0Ed5V6e/tbdRTUnQ0jkHHvlwCC6cq8SCF0Ghh3O/iqt4kK2AjDg1w0JtZPNm3e5GE/ZCdV+hTQGZ/CCqGb/WmBpPDACjsfdIqwWngBdyHGVRY+bhUrywHNPPF38pDXyUdnPEAYChbfBZ4jYcYdGOTDE7jRM2kKoxGIPwokabiSDxFSDimDTj6a8eSF42DfAXdB+JCRd59WfNLiZ/rit7ETqD8lC1cxyYI3qp1w7NHl4gvOLpdffF4567STypJF8/x4QMBkeeQVCk1j5ZOWsQYAzZAhwEON3EL2qAF5KGPiWEdi1EHPiA41p5EQT94OAPOuP3C5RAag6hpWWaOID2tpyB6skKvzB9gDwl0QeM383Hg6oBVXnfOs4ekHaPTZ8BVVZg70aXobH5NyS6Eswo906lyG49MJ4BJGYHZgIDusAZ15ITfTcuEqDQFt0Ot2Noym5DiMzlwZNNpF0uKMDwPIep1vsVd6ZlgAjvVZAB2mv0zNeFSgCS45C2qtrcPxazmDwufLeAzO5mNFVFgIo7s7Hsmn8eStKaeyIn0wQDgoEmcYTsFMB3yucIh3TIBXGSUtUxq+xu+PaWuYCiS9pgMsSPPcrggAf5OPdAbho6B8/1WBIWTHMdTr8doCTx8zt4xKIa5N++8S/A4RHWzfxoD4dQywE7FuGCgnQ3bWgxwuXoOvKDf/3Mk65cRjy1WXX1Iuv+SiculF55crP3RxOevMU+KhSI4svyFzmPALjJhfM3xOebrUdDzyMHXCkSZyjXxdVxrxsE2ct9ph7OOWu3CEggMyX5/t9FNaGkbGQRMfl9T/kIzH4ICmVHXIHhA5s7DOHcMWPYG99pFvLUNlIPOAXxxAWLoIB4c1AqZjA15ENUDCyWP0wJSRdoIBSfqcqaNmnlMBdcB0mLR5DWR6wqGfwCIu0w5Yw6Chm5Poy88SBO9DZssDU5UaXM/INAwQO1F5qxq7euP2NEiBGAZEFYcLUATCUe/KHRksKZtr+PSl1xucAuHFHQd6YT6mzSo/BbQwdETxpoesgASET15ZSdMJs6qKheKvwVEx1dT7fSJy/pyket0Yzkc+mVeep6LfxMt4zukSWOGfpSE+qI5TGNHIhO/OsijlxqBrwptpDwaZf/JwMDBF8tfBiCgWUEkHI8SG0mLQGIFg0EybdBXyGsU464zTy9FHr5Ax4iVAvWXp0sXljNNPKStXHOGNWZFhJ2gKolEEDZZpFIVtlVVl564Ga0HcBXIdBVteZ6DHxHDw4S3vL5AStxtSIOeoBAi6qn1dTzIeNc+IlUHr7VZHN8vz9ezHwmQGHrdwR9TretdplYZHsKKXtOAjeYn4eCcwBm86ABM8dgNziz/bQdAIvlkjxICQHfLKMnSWZRIQJZcjKGYL4GSaJpBfIMcnPRl1zOjpLgsWzHe7OoC2Lrn5MaYON1K38w/6kkUNw2j7q3aSQ5OMW6sXehoC4x8B86FkGGH6wsuTWSACL1inwWPh+CDNZikAe0CgVSt3igJ2Fpr8Mk8EzhAsKw7cqYUkUDBCYV3GjdR47TsqvJ2cnYbQej+YKp/kK3kDjKNrKoIdqH6ilLQoos58WY4RAI3Bdzyq8fovClFsj4gwIlEW8g2+uWbXJXeFfFepHpEseKNYvNNlyZJFKluXn1rmMwc8a7NIhuWIw5f7zWLRQUWapA9wK3uOhsgoqmrR9MgXWr6Fq9GPX6qt2KY8qRsW7Ok5WavyrcoaB3KUJVymg2fjkEkFxwVxObZta0qlEYB1Azqk4Cd+QKNu/IV50yDE0aaTLmG6a1zqKWcc+aB73I3i6Wt4zDyjDBr9qC64I8Vi96DqLGk2zwcDy8PcCt//U4H4Ez+7du2UTHd7ZMh2ByqQDpV8Uq6se/Jxq2wntgPBcL32ySMV5OoPdBGnH3HQsgExYTyRGo+JsK+B50p6e9jbP98CYljoISSNlXmVDgzI2B4NrWw8InkQbINZ6ghrAsx4GFYLY0KVTgotiMewcf68ebawIIBGwbwTUIrM9CU2tbUzzAqyAOq56QBwEi+hjcNFGFbvP2HIXvOGB/eWiuND3l5lh44qpEm/EzK/TteE6cKDnTgYfbBwSDag5d0IkHZKkbarx8WgIVrotHkKPG45cgcJQ+zvEQuRNYIe1T0PNqIHOaoJUDrSK2xAIzEarHs4Ylp044tmjMhiNKYyRH+mmMg/canz2HTVLiM4neVu0SaMuEb9whtXTKnhh6kVQAp49ZRK+DvUscT0Mho19L2WxFnxmWczX/hjJIfL8GY8fFH+fhkt1hvYF5PbAGCZOHDiwb9R79kBBxl35uXi6ZSOAA4ugp5LJIjYTNumIyeUvEXP4x5DrF0GFojhEw6fJeElX0pZkyEn8mroiBBpkeP7xnyb24gmEXygGbIusf5gwyCrydoGSsM7C8gPN6/uZDNhEipNtwTGR6iGt2yWcBlagQs75IB1MkvtQwlTAFnwFqPV3wIbEqo5IPHEnhSeO0LzotfrwvpHRfmhOpGlEfPOx9Ytvga0Bd2mOSnfCg6TA5O2AwZBLCrOlQLQ6JRSBCN/DAhkt2zeqiHyqA2tE+M6YKr8DhXaPId0uXuCAWHubS7RDBsQ1meKG/AOGRCbZYTXcMZSBAYPg0sBYQ17wTSBhVdkyQNubZsUB8UCl/UT7sCoZlT+QDJ/os9mLfLu3Atj/RBqGJ00Kwqvskr5ZD1lA2zVHb/a2NvckG6Gt5Hz/Rk6k8wVDG6r8hZ4ptp7dSY0SOVeDsLaDafTAa38G5C8Ab1SlNlqsL0yxtCj6fldpDyMIhzuhuXohylcGsAWTaHZB7mmq9CZ99QADk66of9Zqhu/f1Vp4RWo6iGDMKYpJA8V0q7oANUhwy+6VctNllDD2PCNmOAhmIKeKDJv7LESMr9hvYOH6rxhRLh7ZTW9l37e3EkFoMFg5dmANrx52DsNieeYBOagUdlV2Amd151gahXFJ9GhsfD5AtZfkicUHgNCQTdpXkcvQxlCCKEYQLMM6W+GgddSCsJJWw+YQUF9x0Nld1hNw0gNYFWblf42zTbtZj5NSN4SwEuXkHwlb3Y6qC+mMPRoSIgkoSBRbowAG8m4zulWm3b0Lrz+j89AcMuVaWlP70xNYbrK6jXvlbffWe3OwesEk9gPheTlybn+Qt2bqvzQZuE2XqlQm/Kk9BUaYVkuAP5ohJybYb4LaN7Joe0ibMIPss2pIyLnqrTuFMU/9bJNU0zuVIDNCCCMR6z/Zf64pqyBlNmUPOEU7mk/BsRrJaE3AdzF2CfjtcPPBO0QD+gJQNqEpr8Nk8OmwpkUJm9cK39VWezRGVRZFWZhwZXKp/bLU9K8K8TlVVuivJ0Q8ojRJSMnP40rWhSffJyCeTuWEQLkg0C5rTu2Z8wrtAPqZfwy2io0AMVl1MLax5YtW2RIYoNVG+NAyKHiIYHzOpAaw0wUlnUIKiwKEffHfRdEQtm8aWNsFKKnrTBdvhneGd+6FgkU0ENgBTGkx3h5jk00AhYfGF8UcocaDIoavLdpdtKPigk31XUC101lbuMgS97C1VvmzJ3rhuMwouTo9cyP6pZOAAMLD83y2qdyYXAff/KZ8uxzL5V1G7aUjZu3lVdee8svyH7vvY3CFcEm+5F96ZW8Ywds9HBZRPijd8VwscfA4Y04GjPX0etDDoKTIXlNl5DXIYN6zTkuPCKa412Xlar+yAUs1lnYh5Eb6rhr4bU/8AQp28wDSH8zDGjGh1FhyhfyYDc00XYyxMiCBeWt2zQyFg9srvMepZq+k3YTpgmeUmZiPs5Kgw+TTt3wci3oZ/mIo73Q5tuGLMofNiDkkpBpuYOVN1vAJ9wGBCLcn2Yl3B/q1aiCdw6w4ouQ2fHpx+YbwE5QlBfjw54LMjXnrf8oDBknkOFUFnxaCCm0vZVp9mDQ87FwifGg0Iw2enpnWCh8cZ0RSM5Dm5ANEeA8lZ80mc7hThNKzzsR0ngRkMaF0Q+3j7ktFo/xc0wPmdf7QfLVyVs69l+wqY3nHdjB6AoVwBNGFINGL5sjpCyXARo68QKfN996u9xz3/3+0NBdd3O+rzzz/IuegoBjzBbLUTbuytFYeZAPsvCY8iUf5vu7GbLXNOiLp361LO8HnWUGmmF5rl4bSYbscRtVeOBKDtQflzSAnTIgoYORBpyYtk/WC+imrmZeCc2884yPkXze5ox0jhYd7nROlB3bZLy4DUs+HTQOBlNhVFYnAUHwHlMQdTryUz/xyEXwY1rgqLy0ewYA+DEYk8rbyIDSQXdYAwVGlRkHnvXNn2iklAYieYdANEqSL1q0wLctE2AMZcCKQRQldTZkrPRRkDYPWTFTQaSJXA8KgSaIh/oYKhLo3NRDMselkbD6jJLQeLwwJ/pNxWiep4PkKej7JJBPP27hsv8ketEoLxWAY8GS23TsaSAmk00HnXxw3en0F04AX1nJec2K/tw5Glp6yql5t1AZeGFc6Qy46wA6G++oM9I003MArBmtXb++PP3c8+Xxp54pb769WqNPzXkVx0gGIuaCv5qeW6W8IyboRt4AsmC0Sd7cNgUoCw864qJck435oYD5hueaf54D2Jw2w7dRW694cEOKBkU88qD3b+UIDzUePUp6pHk/vhKX+sCBTUPl1Z7RlqAIQIu9VuN+Poq21lpQEhxS+RtlTnwup+XXXrVhTUvmzp1X+iTzxCcK2TDLoPPnQ+PIwCnQLZyvkj4uysLIjU4ZdJz1HsRxPojrHDihoJHYiiPAgLBwSUYQgll6XIhsGd7i+/kojOdZBvCMOblgDcjCpxJxRcHaRxuCUtthQOh5narSYdjIbdTYk6JexuEoReTV5KPzutPfvEYGOOhQJu7xs97QQCGRfjxEt923kOllnH1C0z8NZJ6WC/iZxteSR3UJrgslwTDQaJjDIjWoRFyXlWPbDk1P9+42uc6ysRGNK9JRRu7UMBphW/5eKQq3dBm9OO9IIminp7dn9ENHAiCf8HRZBtRD9ljUBwuH3MlIvcpzs+ytMrazmQTEHiALdEgHIwB63FkM2ZlvumRxJn8/xs+QvSUDzjVv403mBeiUWUULaPAAcEeK0TFp4QgDBn10g7sijPLhK+TUptm6ClYPdA1IPhMybYtG+sQD7cG7YlkcJVTB8EL+bB7dXl8kBL82eiIdZW3LF3wMc7T3KEuz2GFA9ox5RyBEIM+QDkvD9KVPDXPJokXu4VxwPwPDegPzqvGyefNGKcmeMi6rijp0lLcFkXm9AGBWJ3qvbhV0ciQgBOPEEUETpVd8sCuWj/26odDdSoHsFM8dIX8HVsxAMskikHSdQFgqSdNvDt1bSCHU2Hq7yHuun9+QyE0bHpAXFp83sjEac6Mz/+LP9RJ5Zlna9OGvfW3eWuxVP47GgNMPzDAQDFG7vSOWPQWwABkFBZIuuAvib+/s4vvFu9yAgcwPXmhY7TKHCz4m12akAAIXPeGOA6MfRqrWm8oT/PG8xzYZED7tYNqiNza+N3iAbHXk5fw6AN4AZJfyo0yTQNfQNn05Ggy7YnlDnkcFSpZP+3JNg+E7RZGGPCYD4S1+apauX/C5SDaJhq5c1oVHP9wylTGnIVAP5BEdJAZkrGzdvkPh0nW3OuiIRvUmcJ1uWqiRLrdgkvxqGPkyxaSzpW34Ha/iI3iinPEmMi9TqEA8NAs9P3ELHqTkmKqz1uUt9IQF+Ra4KBPqLfwmdhHm9hdIEEU4vDl64fwFlSCVES2zt6ffO9jeW7vWwjGogUVvIEC4BMm1K0GHygqG4+wXky5YxEeFKJXiOHHdBBYv52uYmB8y5scnZpnnMvzavCnmaRiQplyngpayTOEPgE/xZgPBg1K9kkU8ASysKJfiODNt2bRhox/XpjKs9PA2if8ImwqcZ41uuiZEWITyT96MALgL41uFhOsEv6yyc3uWDXWsyeQmPWBSOVt+nxzWLn8bCEl15x/HA3CsRcU1cgjjQV2wwo8B4YXaTZ5T6YGm/6BQ2ZmE7YLy0x/xKltf7wwZVBm0OiJiTGYtES5lx7izLgNkGaEJjSYvjoN2DUNPySNwHRJ+RaDvnj5LJ3g/L+8HbtFWPZiGnG9pa0pHwhh5Ic32YXz/t8F5hLcFiY9+OS6ycpj91J+8dPh81nT+/LnuJODD9PRnAyIWhoe3ubNzapcj6i/Bdam0freq6tEdPeEuF7RoH8o1V6Vn9s/UkGde6/YoB/NJ7jq4K+2ecOVMyN/VzSaUYX+ycE/dA2IGOSoTtWwtIJQKtavM8s1W3nWZhgWWfASHMQBIv7zs8YdHL2w6KnDJk+EYX0Jj6G5kuazMJrT4o4w1Pv0H4ENbB7Jg81g+KJVx5IFyshjFKwR8n59SUL4ejE/kF3kGfjj91bwiRv8VRQXSWQl91q/y0AIn1RBVebCgyyKmaTozjHHUH9v5GXlkkQ4oW4Us93TxAVEmDDhTFpSIkU+uN7TKWM+sNXALN/c6RFS7DE1/QmcY181y+zpx6onGiPzhgSe0uQtiBSdSWQcN5u+aUnFHis1QB5Q1/e28WqAoYpu8oW/IwjponqKnZnNjazpX8+UMb3ymhPW5Vt41y0gPbuBxTAfgAaSPFHFNsGnqbBy8OnFnjkVd0zRqTaVI2vzW4WHzQ5RvCshjWdYw8DA+aR8ocyXUAqfiFiw5DvnuRrznE4AYT1oOzWHbbQxxzLpojI+NlI3r15c1a9cJT9FkIIdpI/V+4XC3ne+XYgTiQ/TyyPkaWuo1jWOLLFCYokzfZ2RpmngiDfwNqdeFFyoQYxcKozmuKmmDRgExIpq6MpyuugQLfwoAA5btEa2ZmuOySMZHkyxQ0Yj8NUSVAfG7JcfireD0SjYi+EXAQ0gTknO5wlFGwhOvZtY+wWcN7uTZL86ZHW/eoiexMWWILGRW/XOV3T1hEjwEaObTBIJpIHYa0lIXrMG4LPDv8obuYEhzATWgTbNJH3+6qSBDoe25uM7Gb5SIeqaevAbBo/Tih1EtaZANozGm40zlvDu5mT9U4N86gAvIPFr+AxxlZbSuPORmenNj3a1dATx4oM2whR2ZGJQX9ZfufQE25KA3CVpJg6f+3n5vuUAW5MuGOqa47qBrGB5wuckAT9YXeISXxjS5mZdSOG3IPkSVjmbt3oL5Y3/fTA2zNKyRxTEBISCU1h0PNfg0LiOju8qa1WvKLt6u5MGJFFqebhkDVkMsNtVky64q3uYnrELFgdEa7h1wEe9r4pQmjVI6HuF3o6EwSMoCgaMJrypv2TLsW7gQiKFWOASAy2sgzwcD+M4tzuw/YWswSpI05fECJkNUNilxv78mlFyQh8og3iirzypDyEZJLYCQBwaaMxwFrujKHYzDAfUw3negukNMEIUCSoEy7JBBZVTm+Suy6oBDKX8CqHQo0OM2P8YLA8JeIOoXSiET8SBmeGDNDaZmEXm1ZQ9Mlz/hxIR+iGbDtYECB1he+vO2bfFkXYMG9S9HOuqQPU1tCLmnbuKmgsnBkb+DiODnIbJ6e8mB1110lgkdoYPkHTFuVwqbrlYJ99FBI0Krv8aZ5+DEfBDO5saok7jhwfTWb+xT/iRr6j/rlrxIiPpqAnhQpa7bUOUJF5PR0e8JzYW2WBEZ5vldCS5oCJ4PSfFAHcqOYvqtXzpv3balPP/8C2WPGGE9YpYYHejr8fdi+czjQG93GZBiz1RjmynDYydmB3Q9IHz8vlahZup6QP5+5dEn1y8m+xXWJ8fWcab30TQ0jZDiMo2yQRBT8OgGrQbIh725C+IGr8I1lSKVpOmArJAUbBPA8SKjhOnRGCv8gzwbItmQf6tCuv08EBuyvEiIJRd+lyw/BgSqGMcwJNWYEGiDGWcOwHHIHqdIvhKGjWmyhp9LFnNZ/2Ah2o1FfBCOPFj15y35GLQIbxAAzPfkMoOT151yShgfj5f90uEwfSFvgHTmV7pBQ8GY83mOtowCRwTtnEsHbcKa4U7DmSDJk7zjkfXkreILyJuHvXxHinTkqcOk5DBow+pcqEdcls1+6gsayWulapxGXnGHEn+c0TP0g1ui3KWkc3OnBZ3UDznkEXulqO/Q2cwjwfITLiPakFc46pLbw5x5ihkaJM34TAsfjEJZg2FUSJucX2/hBl1Gb6SJcjI65UFHyCWNKG3oD+C8BDFo0KhW5QYBGulsQLZu36qh3zwPw7PxAWS0dMli3x6LbeFiRH5625/cd3+5754HfJfmpGOP8Qedz5I78/RTyuknn1hOO/GEcvoJx5XTTji2nHr8cXLHlFOOl/+4Y+Q/tpyi88nHrionHXN0OWHVyknueNzRK8qxRx9RVh11eDl6xeFl+ZKFZXZ/r99L8O47a8qYhujxFiaGViocb0XTlIr3TVJYykDDo8H2Kr6fisAg6ZqRDTjZsEI8kwG5cEQvhoEq8eYsKWgfQ3iFoSwYs01btpRHHn2irHtvnVes52ikMk+GZu7gTPk5D5Q5vCWL8+xZavTqKdVbzh2YVeYMyI+j9+RTERqGz5ZhmM17LPvl5B/UGQM9qPLjZklZKYsqyzsauSUHjygfw/wYEY16EZO7IXQM2ftRVgyyxig2bqiKh/sHSGAKQHksUT7fyfQpXgaE8klVbFj51OnW7TvLu6vXyoDs9t2yXp6bIk9VCJ8jxZkH/CKbfniBP/MoF/VHHJ1I1BN0cNGhxGhXglBYrM/wUCCLfUxbYo2Cr/5Jx9WxYOBpMRzR8NEDXdmAO0og4vhtZMJYRYaZDoMTcXxpkc4WA8QrEOhc3KiUCn6zkdPb24AoHXyHtHWGbHVZrjAuwQV+noRmbYX1STMoBwbxgHGFx4gcQzYqw7CXaav4nbdgXunpi09CzMjpluUyI96Mtme36VnXo/CWCXUaazm1HVE5krF37ho3WAG6xsfGJv757/w35YH7HytvvPNu2bGNBsiQhxFAX/mX/+x3yqUXn6OM9/lWLfssHnr40XL7bXeUkR0j5eILzy8XXnR+4dF/SsPmLZ41YOW2bempBlWGKywKj69pyQkxT5UzrkgDDebzzNf4+jzfdj3jzPPKL3zu0+XoVUslZOGLLxT4+7fe4W/zrtuo4aLCukSfEdHSxYt8+5WV5I2bN5WNwzvKbn9AnKpWIxINrKs/AVEBvqwAqlV/ukJl+tiNHy6f+8zNZfGi+a4sKGxUr3bvfQ+UH/7w7rJblXfsqlV+l0a8ySvK5lFMy5m8IMuJWCKOsoJgHDllb8i0kYQHsfaW99atKxs2DZczzjijfOKTN5djjlkZ1T0xrrrqKa++8Vb5wpe/Vh5+5InC50b9mgXF06Bny1Cx7Xp875gfMd+jeDYoR3NxJpFfBToSlNkI0gvijl6xrHz+Fz5d+HB1NmRSbJb+PPDQo+WHP/ihR7Y8QwU/oQsiQBEbeUSxakEFmS8hwTFQyw+ID9KbBj/R5N2zbJlfpU7n85//XDnttFPdqKXxluFe6eSjj8f3X9et3+S1NDImD3cCkgV6G3pIaK0LroRLJ4EBZgSUoDYoNHRM7UQG8szTjiv/+Ld+o6w48gg/mY68kciIDPwjjz5VvvWNbynvdX6jF085861Z8mnKOX3BRxgQ1jFmDw6VDRs2eSOcDQVyNKshC3j02hPX4ntco8/unoly800fKZ/79KdtWPfvU9yE8uSNdd295bbbf1z+8I//zC+ZFqtKK4IY3P3qbDWT4Jky+CCqt79HnUBXuemjN5T/8L/9cZk7b5FCyVdubO/eiX/y23+vPPDAE+XdNWs01OPlLywEqsfu6Sv/19/5nXLZpedrFDIhhd1Yfvyje8sP7rzLizBXXHZZueGGa8qyZcvcy6FoNIaQRDSerGj+7Iel+FGHLnSMCPDSY+hakR4Kci2aOcR85JGHype+8rcaaQyX6667vtx88w1l4cJ5xmcz219/8Svlh3fdW4a373KDYEp1skZAvCznsGVLbUDeeuft8rAq9J0169xw4IQRDLcbURrKAA8oDICfUcUM8fgLn/mUP+Q9f/5s4Y+XjRuHy49/fF+5++57yy7lf8F555Zrrr4qvhErmih3Di1RlDQULjjlFH1KZslkvFspOJE3wD99lv0KY43nxRdeLLf/4K6yft2mct2115YbPnx9WbRwrmS5z73vY08+U774pa/6w9YUk3QssK08UiO6lSs0Vx7wdO/1194qq9euLyN7ZfCFEwqNa0PKJOoh6uuk41eVX/+Vz5XzzzvLCo0J2bJlW3n44UfKgw88qKntSDn+uGPLCScc7ztnWb749GnNQ2fC4yqkwbVLahaIi/C4DjlUsShMtMTT8Nbt5fEnny5vv/1OueCC88qnPvWJsnzZYsXFA5V8Q/fue+8vf/5Xf2NcGgojMHr3heqlFy5aYOPARi++rctdRd6HQln5Z2QXHVnoBCzRP7Awzqs9B9RJXXr+GeWf/NY/KnPnz/OuUxWz7BgZLU88/lS55bu3STabyoknHleOOuoITTNkQOhkbdhDN8gnyh5TBY9WpP+e0qjU3IYHqAvuglL2CbVRzmZIYFpVHs9LP3jHy2c/88ly1pmniV/WyZgGjmlE0V/+5m++Xr701b9VvkqP8VEcj4LMHWKEPMsj/B0aIPA8E0/dK6rcdNMN5X/9j39U5s1fTG7iT27v3j0T//Qf//3y9NMvlRdeeqnsHo1FMt62Dp/XXnVl+eVf/pwYGC93/uAH5Z577vebwK+99hq5K8qChfNtvSk8Net3q+rMtz/TksKjCxfZOih1wI1EcaTB72Gnwt3jSXAIjABeOcCO2VtvubXccsudiustn/uFXyiXXHKBeJ1QD/N4+fo3vlNeefUNKanm6jIIx6hH+uj1V8dbtdTzwiNle/SJJ8qP737AI5Hkx423GhBfyw/AB1ZfWZQbrr26fO6znypLly8q6zesK/eIxt133eOegVHYtddcVVasODIo6i+GutFg0inAYZGrQPTpAVAc9wLmSM7GM7DMgxSAqQl4nLkt+MMf3iV53Cme+1S5N5bLL7/IhoG9H3fe9ePyre/eUtau2yADpmmcjMpJmlJeevH5/mJ8X/8ML54///zL5b4HH7FB3afep6qy822CDQhn+FR9narGgAHha/z0Yus3b9Uo9uHy0AM/KYvmz1Wnc7FGRUeXBQsWij/0gVEexpT0kUvKQpKJuleUOx2FAVwjh/ATH9MYeLBf9YKjHI898WT5xje+q3n9znL9DdeW66+/StPy2cbdJMP2ne/dWr75re9raseLtounisccfWQ59+wz/PV58lyjaddjTzxdXn/rXU39GHGTM3WhsldeDfAivzmTgZopA3L1ZReU3/6Hv+lpDOXcvnO0PPLY0+XW799Stm58r5wvw3b99deW5epcVMqQB1ZG5xidhUzgV17FY5KZmjOKUv2r/sAT60IKniwN5BCBpsVpuzrQW269s9xz773llFNOKL/0S58ux6w6phqmrrJ77/7yv2kkcdeP77bsZ3RphCEiRx65TCPaE8qSpcs0yp3wFo1nn32hDG/bWXr7ZpSPfvTa8u//0x+X+QswIIBG7//qX/2rP7j9Ng3739vgN6vvl1XkHQY0Xkq0YeNGM/Xk08+op73Hiny9ev+PajgzXz2ezQLoAs8HKUQC3hodjcdlb4XbD0gIcUIoHIAaSw1HSTAAvD6Ayt6+fVt56eVXy2Yp7dCcueXV118v39eU6tXX3nTFQwA+zj/3zHLGqSd7QWmvLDi9DHPkwcGZftZjy3B8itPrHMon8wOyHA6rfhYFuYXMred77v1JuftH90he4+VDl1+iEcB1qoDDnS5GHuqxVPmMPqL3inMqSxoU4gMv5tIYZ8816WRwuqanqyzorMaosH7NidllyMjnlZdfU6+ztSxesqTMnDWrPK66+sFdP9Joa7WVmXwWLpiv6eZ55WQ1fOqXKRjzahb+mA9jaDAEFp4rKCDlwDlkFH9snFq+fGk54ogjvKPxR3ffpw7mTg3fd5fzzz9XI4ELNQdf6LwZdWDEeB+H5WAXsmELQciEPOKhs5CXZGEZcI1MYULxioMml+5s1IDZn8OnG6H78iuvlvfee0/D7Hni7Ug1lrHy7PMvqb7u17RvvY01Bu1w8X7NFZeVU046wT0uT5svXbLUU4zVGon7jXYut/6UW5wDrKc4+TEjrDstWbKwnKrGOqSpMsbj0UeflPG4vWzZvKFcfMmZmk58tKxcudLTOfY0eM1KUyPWjOis+RgacbyTg4Vovy5U8bzMCz+v2ODM2pOfKdI0yK/f4Gt40mkWWvtmzvTeD9bqlixZVlavXlNeeulFy/i4Y48tAwOD0ofu8uJLr6oDvddP0VOIHpVliabl1179oXLmGadYdosXLS5HLD/Mi/Gvv/W228gxx66Unt9UZs2q73wVyID83h9899tfKy+88KoVaT89BIrkGor3OL67enV59dXXy+DA7HLd9deUm2/8iIYxQ0YBrPgWskKUPBoRZGoYP/mNy8lhcc05lRS82pR96fUHemIdvKeCM7dw58wd1LB7jQ3GayrcY08+Wd56+13P9TE8NF6MzjlnnlEOP0wWX/RpoJClEvgUxauvvVHWbdgsXJTB2bUg+QkliUjmmLycZ+OmzVLS18pzzz7n27RXXnl5+fBHriuHHb7cigk26bH2oeghCwPX7Qv9ouHgBcgPGg5MnnzWn4NjZMIIBIg9OkNe13nl1df8cpjVa98rP3nggfLGG2+7QdmASPZHHn54OVvyWLBgrkdyYcx4GG9Q5dpV3n7n3fY+hQbYgCrzaDQOsWx5spVFUmT+/AsvlfvuuU/GbrxcdtlF5ZJLL/U7dClGc0QR0ohycFg+WAnTjzIRh/rFhVzNMxf/IoBeN0Yf8AUat7QxIrtGdpYXX3ypDGvUMTA4ZL247fYfqtG8YuNDvjPV6E7S1PaCC84WDV6WEy/36VFj7ZVR5T0oa9ep41RdmPNgvwWuJ51dV+a7S4Zzj6ZqfKFvfnlMI4/bbrmt7Ny6sVxy4dnlxps/Ug4//Ajj2UCKnsuJjsQFPztkkgbVOiuQ12Fw35QnfuokroIvRsuMWNkVy53V19Ru33z9LRmi3rJ46WGSx9ryzW9/T+39Badnujuzr6uceeYpNvyUx3KS44YBBuoVtZXde3eX449dVT5648dUzoYB+b3f+1d/8I2//ZKE/rKfW/CKvm2vCoC5FjMYkX0az1168WXll37xs2XRIl4aO6bCxtCOOmVhKiqzXit9KF04B5pcDbPwOYcipDKkg47vKKSi6OAZHBRtgawld46ef/HV8s7q98o2NWyrhjKt7Jiv41atVMM5DD2oEYxkesuu3aMamr0kYzDsyiQOfI7MH4hKBkF+/hTOG7rWqpHyYqFrr7mifOzmD5flh2kIrOGUDakcvbvLIDKtCq90AtIf+Rjk9UiIIDnTq2mso/ZIBjOQRPpnxAtzZVDe0HDzOU1HqMeNGzb5Hal9ahDcxkUhGC0wB6e3HR/jhUfQ1dRMvdz6jZvKa6+/6a3vUwE8mS8lqhypXMXPlbykHv+Vl1/WFKm7XH3F5eWGG64vhx1xGC0h8DGSHl3RKKJMklClIyJcu0AA8o64yLMtD8roBiuggRBurZBwfBdJ8WyaouGsWbNWfL1eXnvjrfLMs8/buDL6Mff68czKiZrOnXDCMaKmhsmISPwiTw0JPBp7Qx1TZN6G1AvOrJv55TrKm7S7R0Y0wtmgtJvLIw89VrZt2VAuv+Ts8vGPy3gcqekDoy93cBQ5ZeEL8+Q/wpCb/Jmzp/KBqHwjniD8bhvyx5n2wRk5yfV0aUS6yB3vs8+8qA7z9TK6Z7z8RNPMRx99zLfiyapLo56BmTPKuRqtr9CIba+mN9CGHeTRI4P6yutvSO+Hy3HHHWhAuJOnTDVUcmOVU+CEhjkYDwqJ5YMp8Lo01+6e0ecKZ7hFxbFJKe4xx22zMAZBy9eKy1uM+H2LjS3ehCuMsx/GIu/WWXQZykkooUQIhzNMlLJt6y4Nv3Z6pTgalHhlyEsFoJTCFWZ55521mu6MRB69DAuxruPulbilR4VaeZwuoKXkdu2wBBo5eS5dtricf+EFni+GgaNSM17XEiRhUbHisKZzQ3A85VdZJT+c/lCRmqfwrAjEC7cqBXImrCVn4dFrLl12uKcLfIV/VKML7jqM8jIoDd+tJMLdoVGGHydngQh60FU97B7jFmN8CCtacloroTXkD19ttY6GvlsdC4rFVudzzju7XKvR6dKlS7CaxvGB0itZOOqF2lL+4oEz+XH2e1zlHKd/ZOAgshPEtCanyLioY/xhkPaVHs3TVx69spx34YVlQnr20quvljfefttPFTfrk/oe2ycjKhrtA4rtfELXSBOJkEETvEZIvSlYKcpepXtn7fpy9z33lM2b1nm6+LGPfVzG4yjrmMtJ+VUhQbIjb5ddB/Vq2VgqVQDVaBCmeNeJ8NGrSkqOP2TBQZtln1BfueTyy8pZ551X1mzcXL7z/dvKY0884UV4yhUmVdxT5jHyQC/IF6qaYsonSr6CHtPT/H4UEDwqmv0ffirPBVUIBTDHwTjZsKL6xFOPl/sffFCNb0fZuWuvV5n9Ps1dvCx2j5Vw9+4xL8RagatD0Ub3jmskI0HLwu0Vs2NjfNCbs/IfU7id4tSoHS6DwPCY+TN+3qMAzqbNm8sP7vxRufvu+zXl2uUGgqOQCQgH/t9+Z416oBfL8NYdZY9GUFjgt2VUnnr6ea9/0HNQQJTF8m+AKwkRyFFpQChh0ObjUcypd43wAW+qGpzowdQy5We0FPNZ5rXxvkkULnCCvhw1Y+OiynM+xJG2V2G8WhIDzRw5zqRBwTDc0GEd6GmV5x2VtfbdbtC8SJmXAeEH+FLf6+qRh1VuDIiIu52vWbO+vC2DyhqR+YGCzkCWF9cJgcIt8G4/gzJv/gKvR8VUBPrVUV7lhbOCytFI0tC6YyFf0YOk/Yq3ATVuGE1hKr7KDbJ2gRtOeUzMKHtUx0ytrBPC9ZRAxs5rTDqTC73vOo0WNvNVetUTnWJPb786TV5Psc3TVK9PgG3e2vJIwMjwyISnP8hIYeRFO+KzEmeec1ZZsXKV6Qefya/KLec7FDjWG9NhtAT8hz0lUZQxBdQqs+QmTbSMDLBoXgOXtTIGBn19AxqxL5ZuoLPxpnZycKeJU4eqzMva99Z7fxe7mknf3c3mxJ4yrE5n61baStzGZu0qwBnGXZhf+vRNcStyj+y4eiisEoBY3NOp54uhVVdZuWJFueiCC8ucoQHpujKKYhgfmsjAAqhCtfD5uaAUMNwkRRKiwxBOK17qwpnRgwrFKAUFeOmVV7yYm3cX6AU8Z6vDQtICnFld5unZ445f5W+fcAfmLQ1N39J8f2RXPLELb/ReAZF2KphMu/jW7tmnn14+dtNHy1ErNL91FD0ClRKjGv25UfsIoUgp5MGvP5KgKAbKahlJJhwKD1koRGkYMtOQAEYirOWwae7Rx54oP/jhXeX1N9+SnHjrGA+yUbbIGVoQIf3SxQvLGaeeUlYdc3ThRURsvX/u+RfLSy+94nUQNzoOM5uMTQ2WhdBYoB4anFVOPvmEcuNHrvctcxa8Weg1D3I0Xk/lkAZ5IAc5NwyFRq/WyA/acO7yh1zQh4xCTA5Teq+NMDLTNXuFfvLAQ+V7t9zmKR0j1DAaphZnEcBoLZw/t5ynRn7WmWdoWsfdmuKF6Ecff6o89uRT7vQ8da+dKhByCRpAXsOHywNtuYXzhsqNH77et1B5AVWUn2mSenXR44w8rCMIUeeQD3IJWk3I/Kxd8qrkXNikxggVOYUxRqYx4p3hO04PPPh4+erXvqlp3CuVfps2cgQG+nvLYRo5Xn31leWYY1Z5ba9burRV+sUGSe7mdHftK1decXH5kz/9Qll62AqlCv2VAdk78fd/9bPljh/cKSWSNVUBycjWUSheDRZT3qItRifU1vp6+r27cKKbQQ5YVCBMU00ia8pyAviNAhJGwWuBK56DW2fw4gIhtQyK8gefimDlmMU+lN0Kr3iEkoqSELTC8LCm488wKAG3XH37jEwwOi4r1wlBD4inTrtteTOMc/I/q7+/HCeB89FxRgeeTkHWqCFg0wObCK50ynAgDUiznF44rpULHVzO8wGMKotimyWL1157w5vK+GQAn4nsFs88BcszK5W0Kbin15n5P8aULc8smvNhIXoelDlkhpyjrAcDl0doGAtep8hmpZNPPKFceMF5fgbDHQ6/atjDkZDgyMfvVVHgHt58VnFatPVT9Vv+NhSU3/qA/qBHxGNUkcsML1q/Lln8SJ0LL4imPG6glWZCpIdu8Xtljj/uuLJ82TI38HdXrymvab7P92IjFfrChq+A5C/BfFYgyguY8jPwP+Lww8qnP/1xGaizgl9wbERC5+DNZc5wCMhBsikL/lVK/wMxgqEM6EnovI2orn3UOGLoHL71re9JLm9qFC8dNrUGmCSLxzz631uOOvLIcvrpp5Z5Gkky6n/tjTfLs889rxHIsIxMT7niiouqATnSvJrE+Pjeid//v/9u+bM/+wsbEM+R3bDCgHjeLYZiKCwByc96A5WpYgeh5MuFSJjcoAE3KeEE55Mr2OkcV0HBcJFADHcUUCRfK8DpFcMQdSoIRaMHE44qKUYxEqMrEaj0RQt6kLPwFQ+wis1zBTwfRIPMSrWhBFetHyV35eHIzgj1bAhfzUlXk2McLo9lI1D1W+aE0FO1IRTHQCKhB158A4TeFiPJZy55HwrfpA3iooxiyzEKEdFQXucXedLIKbN5UzmC1+R4eqDMpgkInYXlwcGBwke3LMuICUqVHGkA+OE2MrywkxTZZj0GHxCgQYVsbSwUHmSSctCzLkpWXudRr8k0ggy93iAfaQHoO3//gne/N0MdARrBl+qZxls24of6zCkg6bJhm0aF1AnAoyKd4ZIntulYuJXc3zvT5c10QYt6UF5K3qaLa1+3KEvPvKwAshCSlmcb8hvRcUTDAYZvXNPad8uGjZtdBvQ3IXlGj8mFNLQNdinz6lIW39mkxjR49+4Rb4qcoWnClVdcUv70z75QlngE4uxK19jY7ol/8//4vfJ//OEfacgSC2nsbYjGGQCzDLG8GErFahjCCjTXCD1LmoxBOaY2kdZB0GjFRxiFtpi8htDGBRBumgWSeXhPtNPQDqQMVl5dV7IHAhGhgC0gSAkiLGjBT9CIKVuWg4fFUC5ezZcVkLTAgWtXZr0WV45L2gBSCHINHgSWj2RJlEch8oDHqCnfMcrHfCKxEHRyD6eRBHXBHLyvPufgBUHLQ9MJ9f6MFuNdqMgmyopj2sIHuP0luPoOF/LxgiF511qLzoN8Dw5VFE5nHgVUCemZwnQC+O008EQ6eAg+Sck/KLHg6iBdV1o6gVGvfAbXBoL01hHKIP6jcM4jDS3rFUDoDWkiPecJ5tG6sp7hNRUMqy9MAx6td7UQKVufTYn03B2JK3dT8rDdnTuKCZG+liPIO4xg76XKwEjsM8WJ9lPrUweGEx3gg0/71YGgi8YlaSRzO0UfYhct+dacHV/5J5zRuoI0sQijKTmENvNWQvif8H6nP/3zv65TmKDWPTq6qzzx+BNqINzRkLB50gmSzsusOBOYo6kgQEIpS4xW8IslFy6BxMEY8k8Hip0Dwh9nVYwcIwwyTuUJKm1qDgSckGvxovRmdQqIaoQ3LH3waDfpmBrA44lFpkxUQFR6hJMoBC+e1fOxAYv24jKCw+FrnRVnJie5wIIiVR7rZ+LWZxofBkGyFcHkF2TOplmvmY5ZedxrQlYxSmOldx7BJ0C98fgBCsdUB2NkXiqYtlVGDUT/pGu6qYAscDb2os9aFVNeP+JOEik474Dh0k5B8B+5THi3sPfLOO8IN45xG4fyx0FPimhD6VFgDXMcOKZf77hwpWDC0etcKzCeohLHhwTfvOZOXY6GEogHUhZ5DRBGuuBaU0D5xk2PvMQnZznKTuOkMVtnVH7901Z9x8TPyAiPu73cBUWnWIKBXqxM6oAu+YkNx+ua6mbMxc5ZP9uiSGuE8MbHwiDpypDnBDjzGVx0hAwFEap/e9ryJV95azoZyz2748UvXuWXFdKUJpgMCjYcWF8SSbROzf4PejD2GHQK0lALZQFWB1+EpcuCI4SovPaZ/GGRCxpXjyQcQ1jCA6gUSuMc28EtSGWJXq7yBeBVOEngKyHQG3gC+LHBhC/z1IbaMThdUJLjOi7jryYhDGf9t8teKmLCeFC+UPJYbIthuDGoNTl6dRSCPQ1iSy7qCeceH5zKL8w0y0PPiqHxdEHp6AyIhZ8oWuBSAz4U2HQHBXBQbviW8xXskK6R1sajBnHmmgVw65viW05/OF/4Ongwbqs+apwIIQfMnheoE1ReSgllhyILCtsB7WwQBDKVYIVLWI4+gOQh/QDybYYHiXrtOHBFR2EYpCwri740U563oV3wJbs+TeccrzIgQQwrBtaGRkguo9sQZaANKr0MERv6zLPAhlz00wDCh/OTHOAHPuIQXxZFlBNg5ENLgd/IQR5d+AYKV7LqDXFUJAyIGGDxj6IbGcrKLJSvLSAzQwHlLKAO8FDeadowGe/ANAmRZeTl3rQKBMieJ5UsoTOvg8F0uIQ34zrxmvxPjiN8wnND3sPpdYDKHw7uW04BnDMOkjgWKsOIyinGDjLKh3vv3BrG0QhoHODSE7VoOcuol+QNP6MlnLyGjOOEYwGakZV7WMdNlsEHBjJSemiMa+obecNTjW8AOD9TXtOCJeJfK4/KQ8oEvfX0ZApIOSY0/UAnzx6NV5f5NXFafp3wQo9RRxgnfhxA8MgLgJhe8b5Wj847+AHyOulNim/kDeHki46fBVJP4TroARHCxCUMDFMiDdQ8ugOig5Izpv7d9h3VAqWBuBRaBeARYzLn1lwKAQKtwv8UMJ3BSaHb6WjhVFn4WnGMjBgW47cRadBq0kjovD4YQKuTN9J2KgZuUr7BsRd0/aSuBM41rdo9oRw9hXVB+FxnWAw724ZAwWEkOSsPhpAYF+LDtfMOWoJG8ahc9zb4hcf6BiPDJjRHO9QH9YmimkylleX8wPDTpKnwQfNs4jfPzfpCBs26wk+ZMW7N8Okg6QJJM6F5TZ68izbWq9p0O/H1759BZ3CZeqLLGeYTuJXXJjTpJYDTiZdAXfP0szdn0pbVfhKg1enMhf5IB00+nIZDpzAkzse8HihboHv20FDrRcogs9Wb4V8zE4AzDDUrK8NxncQz/GCVSxiQYRSWl5mQJsNi+lSFSFgjfQKNCIwW3hRwsLgEcBKv6W/ybBlgpmW1Y5hZF5wVnsrQxI/AKfJWkOxJNR5UZFSm0zo9Z/1UJ0kvKYUL/jjAQwEA7kDEwqgvDaQGF9nmC4Aqkb8TgL/JZT40SPl+UMh0Lr8cdTJVQ4GnxD1Yo0t8nOuXuuyApJNnwLh1VJPlb8rCfg5dxpl/OoW2ocCQxxpbTLeSj6TTdMZv+KcC0nKLHxz4Y/GfdTJSdNLAuTS1SKT1s2LSkQxEr/hgmzsdp5+cd3df38yybPlyP/wUt+TawpwOMj5xOvGn8wOJm+FZKKAZhl9FVOH5mthu9cqx/uIGdygA3QZtIOlPBc28m64J4ARe8MGcld2x6IKrAnTS+AwW+KSMICAWqmNYifPiniqatz5R4fkwVOXGDhWNXJXeZx0N3lpKL4TES3AZKmrLQDOkrWD8ZFJwMBlNBymXD5q2U76HAuTRWT+UiTtmyKAZ3gnThQPQ5XvP3AanXjpxk26G06B4STOjCfLNsrfTxdlpdEyagrfk1DZYzS/4dcqRa9dvhcijjdfOMwwl73mBP0ZdnqoeFOig5GzQurzrdNvWbS29YH9TazRCGdpZGbqJ5G1ifK7AH3lSSu7no2zMn2K1W5i1TLqKoxaqWdi8jjiwBMrRyfVH43BcdYRbgDQkGJSRyDk0kRZ+tdQWoMJIMzUEvUmu5oFz7UEWRipEnP4tlIqAI/+GpEiCXGzSxA+VZHWIIYRxUlH4EWIXUb4wDRmLbMQ8Ns6Hujlze5XhMPs4PGdFJuqRQk5RB+TPUhUkw3ggVxkX4ViukU0Ypca1QR7qOZ+BID5L57PCmvght8lHJ7i85uNAyDStek7nuHY+hqlJTIImSmbJORw9+LjXdvDnonn4g4/If7KuAqRvgS6QUWzVJi1yiKgmuO5J2MFH5NuAFm14ifgYZSiK6SP6LGCbwOLFS9w4mzRaMrML3oP/cHkEQVJEKP9ZLxgQwvLayVuMKT+cLr0EKj94xNIxkhd2YA7vSh7n2SCMM3jCBK/6u0Ee2bWzjOzYqsL0ehMQizq8nQhl532o3EvO8ww/CCfFkEYz7eEdHS2lVab40/iYhlxvX1ybhuJoSDYwkhfrLa1eOEroBkNpUwH9TkwV1w3L6QLXxkeO+V68MxNxxbnVCOtBesLDBSbCbgECkVQQKnnYiaZ+Dg/RhvCkASVflkxj5oxq+Fpl8tvr1cnbr0Do0LvxrgaMNRvU2K05Z85cneeqkuZ6O/UszT35bGaP5MUoxSMFZCEg91xTiYzgTTxafvCL8YivkVnOXpuR/JkLk158slCHEaHOXSKXJRpMuihLSieuiULRCM16PigoGhx4cGdkHpJmdeDYL5r1wN86JLzIhyuABOmjfquh1QF/GBEW/cLwQivo8T9DRj7qX1c2+G26/CMGgMc4eFaETiKfBCceXqxn1nPy5aw48WMd8QF75E1ZkThhgWMI8YYsSWO/8vbKOR0Lz55EWYxTj7jWX4YpD/iITiPiObtsyQt0BIzacfALG25WCs96TQc2RoTlekYjDqG8SkD7Bbi5QlS2gwDluWP71ol/8z/89+X2228rw2wkUyALcSzmwRDC5HYRDDNCaCkeTCBgbv1yr9lKCbA1lge9yFQnc6hC4dcZ6+vpSKVDHtyCZHerMnAYReCuA35XBUSgpz8Kb2tNADmSKXwqjAyTpulyHdGKIyVX4OgkMN1Kx/TykpCKA73YRxL4TuM4/XEmWYZlVAOIoxJypMHow2/ZltxyIZM043W4SSPn4Ua+Jse7T3l+B8MRK+Kip3qILfNwPBHKhKGpeREPHnXFHS3fGlT94af3NK8VGmzLQQ2IkNw70woXkstC3QrgtylroHXNoTNGk7KC6+dzYAxCFfC16iRyiewFkOQGYsQGREr+23nSyJm3o33cUYRvN27wyM88oUUhP5/9T1RSJj/KqYaotAAGPOoHmWEYIr8YKYR8IGIazkp0qagK1CU6R9YZblST0V+Qk4Ht9Rqkv6m8j9dp0NsTTZcUvNLweZXF/v2Sua5TvqzBubOFmGkTHul4voiy0NZs1IiDRzmXwTIKvQqegiVKzO1wBgpcMYWBp56ernLR+eeVv/jCF8oRRxwd+NDcuWPrxB/+x39bbrvt9rJtRAor4zHCeyFEDUbDIqk4UlLu1BCOIqIUME0GDHHAM74OFl1gIhq6ktRCBT5dMxtcYncc0yY/TIWQKaBoj6HsIMODKsFEBA5TPMKIoSShyqc2DFcigTj4VFrydZh9PlmQnCO8AjThvyJxIt4UEg0+SFcvHK90AZJReuUnmDjK2z/AW9AG6/xaIwOF0cP5wUWVOysaOfp2rRSJN2vvHtUcm0eo884MMsIYCz9GSPQSuJCpG45GIS6zcGO6VTcuQVuuVQD4E77pVZ4DIh6UHK67jPohdwwCKbww1xIMEGX2mVNNBz6LeuxX4POfoRERH8n112XJOzj54N9NGc+kbKKBE0YwPPFSZHSjfQs5cHKdqF1P1Flt+I5pQ2vUi1zrCAO/RznIGFnLqEAH3UfGlqlkC03qx52o84y6wu+RgtK481VU8BFtg+qERxtAOmkZXGKRu2UvP+WjjWC4MZCULTbLRRmgz9ntT3HwShyxbByEjiJMh06cfLMeAW4dB0/BG453rmbHRPoofykXXXBu+ZO/+CsZkJVt/N0juya+962vlnt/8pMysme8jO2WYtQt1PSGkObBK5R0zI/ks3Gl9nwMjVRXbFyxwuqgp6MyGMHEHYGovFBkpiy9FggWmjiMDd/bZfjNUJeykw6zxRCKjWTg6WclQTWiokrZox56t4wdfHrnZtSNhQSOG6POaeBa4E1X4ZIPNvWQjsbKtXtwnXm4MCoTHgjHERY8kacFacLRiK10TC10dnkZdbDGgWEVlsuqUYnn3Djl4amF+LTRgw+VCSOLAdmtSt4nP7iUB2UlPxRGOYZy4Gq+gMvV4lWypwyVXzPBKZiOtHbtXilkyDkUkHgS+oRPNBxiovjBsad1DZIbgMoPH769nAQEpMz0XDgP/+JsBMLghbx18E8aGwmiKBehKnviBkAg/4MU/6S1rkJD+uUDQyFERnYYdhorOhqGGr90lLqUAWFa5veLKF8WUBkpWl8tX8lLuuWNXFxLdNQ1rqmD8Bt6JK7gR2HIKfPFQIVhonPJUV90mjGiY1+LUrmtuUVApupe4PFuVt4VO6pOKHamYqRrWVVG1txIM7JL8bQdeFD6qIP4/lKGsXTBhtOLLjiv/PGf/WU5ckVjBKIGMzG8eb2GUHwKoVs934j3vsP4XgknhkBxixdhUjBKnHcSEBYFIiwFA1jRjatrZRQCRgxh3REqmBSqzOBBt2h4BI5XCxtWUxUtP6IHHxwaF8LlFYN8J8bPqahyUgFJTAMgTxqbDZn8BogojDWT5Ise3wak8gyuG7bOVDzlw5oTB10q2JWseF2KpP+ctUcFGFc592DMbTWEZOQB7FZFMEXcP6GpioyxaSrvPXt3+6lU70ilB5TSzF+wQBXdX3bt2FY2b9pQtm4Zru9uiSkJRXGDgl/zgiJFOdzj6WygnIRTpmoQAW+rVt7ZMMJIID5oqA4lFxo95XRBG8AlzdmhGVdlD08JEoEheYs8ajpAHsJb1qwCGKHyRhFOjDzDX+ng5KdcyB1kjAMpAk9/+O2JxkME5YYua0XEYDTQK9aPmGISzogbOc3o0XRTdQENG9NKC52wbFwXjEjUoanBIufk2iMuRaDv8O96cXrxBCn5zJI8+CkOxiI7Y8IpcdQXehEjB742h/6NSY/aoHjarYjQZvlKHvlu2LjJGbDUksYo9RNe4Bla5OW7sErPZzqDKRLJCSbUJi+48Pzyf/zRn5ajVvImtwAbEH9xH1aVOId9XP/Xg/fjgfiD8ZfpA6h8jgyPfjbTU1ERTiWHHyd5ODgqMBokSiT8qgh+VZ9wEs8nAYqAEqGw3tkrBHpMMPjgNQ/njdl40CPHqIFveTBE5aEo564KXrhocVmwcKEUdEyGclPZsmmzewxGIzTqOERVRgGlYRjMdNAGT2f4Nh9iCP4Ji1FOlNMfpVKPiVL69i4GXPQwaIzE+BA1dze4lQ5tlBlalmd1IRv0p17LOU9C8CMMgflVeVtGQNeJH7JMmlkHahA1Lxqpe/B60KNgMAhn2kKZnJ9pRPrswJALMqZ88MhTyjt37tKUcpYa2Tz3+DE67FdPy92xmeaZN62NjozEpizVBWGs49BhkR+jQ3jy1wckQ4rJ08AeHcpPY4xPWCh7XdMOkUzsPq7tkmLWEy6DOAM+6y/0NdJBd2Z/LJKPjLK9QbIlFQkD3X+D6nj4JC1vyycMR+3yGg6mTMiWbfJeWB+3VFt4LH+k3hLAgL1XUwFekvQ//y//77JsOe93DehS5deshS+ibQPS4skAYf7JKvwHgvMjX1+Ev3qnTHNA+HSIU4DZFC7omS9AcP6HGn8QiHQBHWlrXm34ILTbdBviPUTIfJoJO4lwLcdPGbRcVi0kHB3hBp0xEoQzGoyhMOHxxymNAy7SVbo6kG0rn5omfly0DYhxVTn4oVNjfA20aMRFnOs/PWAaBI+4OPuukXIQTejRiG0kFOf0NakNkw08+TOVZO1AowQZaQxjvvrAbzhXr0yDZITNaAwavHEOXIbynuooP0YcfGHfRrjKBV5pQuif7wTJaDlPWwhYCn+UO66DJy6iPWVxCUwJAJGCkYXKqlYc6YIXeDYPkg9lVaSxMzkjKMqE8ffT1h4jMIphdhFTFfKyYacclTYQZ8UrPDrBeLCUPK++9jrLLUH2InP+OfyfAR9U3K5MJWkq1qGB0sWvlRL/dHAoOP9loFGuaYr4QUv+s0BTXj+HycBojxFbE35uQH4O/5Xh5wbk/xegaSZypAL83ID8HH4OP4cpoWkapjYgpfx/ALczzhB4RiP3AAAAAElFTkSuQmCC;" parent="1" vertex="1">
          <mxGeometry x="1770" y="540" width="272" height="124" as="geometry" />
        </mxCell>
        <mxCell id="9Tk4j7E-xUBaxFbbJqGf-102" value="Tick clock" style="text;strokeColor=none;align=center;fillColor=none;html=1;verticalAlign=middle;whiteSpace=wrap;rounded=0;" parent="1" vertex="1">
          <mxGeometry x="200" y="1152" width="120" height="30" as="geometry" />
        </mxCell>
        <mxCell id="9Tk4j7E-xUBaxFbbJqGf-103" value="" style="rounded=0;whiteSpace=wrap;html=1;shadow=1;labelBackgroundColor=none;strokeWidth=1;fontFamily=Verdana;fontSize=8;align=center;" parent="1" vertex="1">
          <mxGeometry x="210" y="1145" width="235" height="150" as="geometry" />
        </mxCell>
        <mxCell id="9Tk4j7E-xUBaxFbbJqGf-104" value="Debounce Module" style="text;strokeColor=none;align=center;fillColor=none;html=1;verticalAlign=middle;whiteSpace=wrap;rounded=0;" parent="1" vertex="1">
          <mxGeometry x="225" y="1152" width="110" height="30" as="geometry" />
        </mxCell>
        <mxCell id="9Tk4j7E-xUBaxFbbJqGf-105" value="" style="endArrow=classic;html=1;rounded=0;endFill=1;entryX=0;entryY=0.5;entryDx=0;entryDy=0;" parent="1" edge="1">
          <mxGeometry width="50" height="50" relative="1" as="geometry">
            <mxPoint x="445" y="1182" as="sourcePoint" />
            <mxPoint x="505" y="1182" as="targetPoint" />
          </mxGeometry>
        </mxCell>
        <mxCell id="9Tk4j7E-xUBaxFbbJqGf-106" value="" style="endArrow=classic;html=1;rounded=0;endFill=1;entryX=0;entryY=0.5;entryDx=0;entryDy=0;" parent="1" edge="1">
          <mxGeometry width="50" height="50" relative="1" as="geometry">
            <mxPoint x="445" y="1215" as="sourcePoint" />
            <mxPoint x="505" y="1215" as="targetPoint" />
          </mxGeometry>
        </mxCell>
        <mxCell id="9Tk4j7E-xUBaxFbbJqGf-107" value="" style="endArrow=classic;html=1;rounded=0;endFill=1;entryX=0;entryY=0.5;entryDx=0;entryDy=0;" parent="1" edge="1">
          <mxGeometry width="50" height="50" relative="1" as="geometry">
            <mxPoint x="445" y="1245" as="sourcePoint" />
            <mxPoint x="505" y="1245" as="targetPoint" />
          </mxGeometry>
        </mxCell>
        <mxCell id="9Tk4j7E-xUBaxFbbJqGf-108" value="" style="rounded=0;whiteSpace=wrap;html=1;shadow=1;labelBackgroundColor=none;strokeWidth=1;fontFamily=Verdana;fontSize=8;align=center;" parent="1" vertex="1">
          <mxGeometry x="515" y="1100" width="300" height="250" as="geometry" />
        </mxCell>
        <mxCell id="9Tk4j7E-xUBaxFbbJqGf-109" value="Button Control Module" style="text;strokeColor=none;align=center;fillColor=none;html=1;verticalAlign=middle;whiteSpace=wrap;rounded=0;" parent="1" vertex="1">
          <mxGeometry x="515" y="1100" width="120" height="30" as="geometry" />
        </mxCell>
        <mxCell id="mo6XTVz2nz8TOghaedaG-4" value="" style="rounded=0;whiteSpace=wrap;html=1;shadow=1;labelBackgroundColor=none;strokeWidth=1;fontFamily=Verdana;fontSize=8;align=center;" vertex="1" parent="1">
          <mxGeometry x="270" y="230" width="300" height="250" as="geometry" />
        </mxCell>
        <mxCell id="mo6XTVz2nz8TOghaedaG-5" value="Clock&lt;div&gt;Module&lt;/div&gt;" style="text;strokeColor=none;align=center;fillColor=none;html=1;verticalAlign=middle;whiteSpace=wrap;rounded=0;" vertex="1" parent="1">
          <mxGeometry x="250" y="240" width="120" height="30" as="geometry" />
        </mxCell>
        <mxCell id="mo6XTVz2nz8TOghaedaG-6" value="Button Control&lt;div&gt;Module&lt;/div&gt;" style="text;strokeColor=none;align=center;fillColor=none;html=1;verticalAlign=middle;whiteSpace=wrap;rounded=0;" vertex="1" parent="1">
          <mxGeometry x="270" y="570" width="120" height="30" as="geometry" />
        </mxCell>
        <mxCell id="mo6XTVz2nz8TOghaedaG-7" value="" style="rounded=0;whiteSpace=wrap;html=1;shadow=1;labelBackgroundColor=none;strokeWidth=1;fontFamily=Verdana;fontSize=8;align=center;" vertex="1" parent="1">
          <mxGeometry x="270" y="570" width="300" height="250" as="geometry" />
        </mxCell>
        <mxCell id="mo6XTVz2nz8TOghaedaG-8" value="STOP WATCH&lt;div&gt;Module&lt;/div&gt;" style="text;strokeColor=none;align=center;fillColor=none;html=1;verticalAlign=middle;whiteSpace=wrap;rounded=0;" vertex="1" parent="1">
          <mxGeometry x="267.5" y="595" width="120" height="30" as="geometry" />
        </mxCell>
        <mxCell id="mo6XTVz2nz8TOghaedaG-9" value="" style="rounded=0;whiteSpace=wrap;html=1;shadow=1;labelBackgroundColor=none;strokeWidth=1;fontFamily=Verdana;fontSize=8;align=center;" vertex="1" parent="1">
          <mxGeometry x="680" y="230" width="120" height="590" as="geometry" />
        </mxCell>
        <mxCell id="mo6XTVz2nz8TOghaedaG-10" value="Button Control&lt;div&gt;Module&lt;/div&gt;" style="text;strokeColor=none;align=center;fillColor=none;html=1;verticalAlign=middle;whiteSpace=wrap;rounded=0;" vertex="1" parent="1">
          <mxGeometry x="680" y="470" width="120" height="30" as="geometry" />
        </mxCell>
        <mxCell id="mo6XTVz2nz8TOghaedaG-11" value="" style="endArrow=none;html=1;rounded=0;" edge="1" parent="1">
          <mxGeometry width="50" height="50" relative="1" as="geometry">
            <mxPoint x="630" y="365" as="sourcePoint" />
            <mxPoint x="650" y="345" as="targetPoint" />
          </mxGeometry>
        </mxCell>
        <mxCell id="mo6XTVz2nz8TOghaedaG-12" value="" style="endArrow=classic;html=1;rounded=0;" edge="1" parent="1">
          <mxGeometry width="50" height="50" relative="1" as="geometry">
            <mxPoint x="570" y="355" as="sourcePoint" />
            <mxPoint x="680" y="355" as="targetPoint" />
          </mxGeometry>
        </mxCell>
        <mxCell id="mo6XTVz2nz8TOghaedaG-13" value="Segment Data" style="edgeLabel;html=1;align=center;verticalAlign=middle;resizable=0;points=[];" vertex="1" connectable="0" parent="mo6XTVz2nz8TOghaedaG-12">
          <mxGeometry x="-0.16" relative="1" as="geometry">
            <mxPoint x="8" y="-20" as="offset" />
          </mxGeometry>
        </mxCell>
        <mxCell id="mo6XTVz2nz8TOghaedaG-14" value="14" style="edgeLabel;html=1;align=center;verticalAlign=middle;resizable=0;points=[];" vertex="1" connectable="0" parent="mo6XTVz2nz8TOghaedaG-12">
          <mxGeometry x="-0.16" relative="1" as="geometry">
            <mxPoint x="8" y="20" as="offset" />
          </mxGeometry>
        </mxCell>
        <mxCell id="mo6XTVz2nz8TOghaedaG-16" value="" style="endArrow=none;html=1;rounded=0;" edge="1" parent="1">
          <mxGeometry width="50" height="50" relative="1" as="geometry">
            <mxPoint x="630" y="710" as="sourcePoint" />
            <mxPoint x="650" y="690" as="targetPoint" />
          </mxGeometry>
        </mxCell>
        <mxCell id="mo6XTVz2nz8TOghaedaG-23" value="" style="rounded=0;whiteSpace=wrap;html=1;shadow=1;labelBackgroundColor=none;strokeWidth=1;fontFamily=Verdana;fontSize=8;align=center;" vertex="1" parent="1">
          <mxGeometry x="567.5" y="10" width="140" height="80" as="geometry" />
        </mxCell>
        <mxCell id="mo6XTVz2nz8TOghaedaG-17" value="" style="endArrow=classic;html=1;rounded=0;" edge="1" parent="1">
          <mxGeometry width="50" height="50" relative="1" as="geometry">
            <mxPoint x="570" y="700" as="sourcePoint" />
            <mxPoint x="680" y="700" as="targetPoint" />
          </mxGeometry>
        </mxCell>
        <mxCell id="mo6XTVz2nz8TOghaedaG-18" value="Segment Data" style="edgeLabel;html=1;align=center;verticalAlign=middle;resizable=0;points=[];" vertex="1" connectable="0" parent="mo6XTVz2nz8TOghaedaG-17">
          <mxGeometry x="-0.16" relative="1" as="geometry">
            <mxPoint x="8" y="-20" as="offset" />
          </mxGeometry>
        </mxCell>
        <mxCell id="mo6XTVz2nz8TOghaedaG-19" value="14" style="edgeLabel;html=1;align=center;verticalAlign=middle;resizable=0;points=[];" vertex="1" connectable="0" parent="mo6XTVz2nz8TOghaedaG-17">
          <mxGeometry x="-0.16" relative="1" as="geometry">
            <mxPoint x="8" y="20" as="offset" />
          </mxGeometry>
        </mxCell>
        <mxCell id="mo6XTVz2nz8TOghaedaG-3" value="UART Control&lt;div&gt;Module&lt;/div&gt;" style="text;strokeColor=none;align=center;fillColor=none;html=1;verticalAlign=middle;whiteSpace=wrap;rounded=0;" vertex="1" parent="1">
          <mxGeometry x="577.5" y="35" width="120" height="30" as="geometry" />
        </mxCell>
        <mxCell id="mo6XTVz2nz8TOghaedaG-24" value="" style="endArrow=classic;html=1;rounded=0;entryX=0.835;entryY=1.047;entryDx=0;entryDy=0;exitX=0.25;exitY=1;exitDx=0;exitDy=0;entryPerimeter=0;" edge="1" parent="1">
          <mxGeometry width="50" height="50" relative="1" as="geometry">
            <mxPoint x="681" y="90" as="sourcePoint" />
            <mxPoint x="680" y="117" as="targetPoint" />
          </mxGeometry>
        </mxCell>
        <mxCell id="mo6XTVz2nz8TOghaedaG-27" value="" style="endArrow=classic;html=1;rounded=0;entryX=0.5;entryY=0;entryDx=0;entryDy=0;exitX=0.5;exitY=1;exitDx=0;exitDy=0;" edge="1" parent="1" source="60e70716793133e9-2" target="mo6XTVz2nz8TOghaedaG-9">
          <mxGeometry width="50" height="50" relative="1" as="geometry">
            <mxPoint x="991" y="90" as="sourcePoint" />
            <mxPoint x="990" y="117" as="targetPoint" />
          </mxGeometry>
        </mxCell>
        <mxCell id="mo6XTVz2nz8TOghaedaG-28" value="14" style="edgeLabel;html=1;align=center;verticalAlign=middle;resizable=0;points=[];" vertex="1" connectable="0" parent="1">
          <mxGeometry x="646.0033333333334" y="730" as="geometry">
            <mxPoint x="193" y="-212" as="offset" />
          </mxGeometry>
        </mxCell>
        <mxCell id="mo6XTVz2nz8TOghaedaG-29" value="Segment Data" style="edgeLabel;html=1;align=center;verticalAlign=middle;resizable=0;points=[];" vertex="1" connectable="0" parent="1">
          <mxGeometry x="850.0038461538458" y="470" as="geometry" />
        </mxCell>
      </root>
    </mxGraphModel>
  </diagram>
</mxfile>
